<svg width="30" height="30" viewBox="0 0 30 30" fill="none" xmlns="http://www.w3.org/2000/svg">
<path d="M26.4327 23.122C25.0877 24.3122 23.1384 25.1659 20.5848 25.6829C18.0312 26.2 15.3996 26.3512 12.6901 26.1366L7.54386 30V25.1707C5.84795 24.6439 4.52242 23.961 3.56725 23.122C2.43665 22.1268 1.55945 20.6976 0.935673 18.8341C0.311891 16.9707 0 15.0683 0 13.1268C0 11.1854 0.311891 9.28293 0.935673 7.41951C1.55945 5.5561 2.44152 4.12195 3.58187 3.11707C4.72222 2.1122 6.35478 1.34146 8.47953 0.804878C10.6043 0.268293 12.7778 0 15 0C17.2222 0 19.3957 0.268293 21.5205 0.804878C23.6452 1.34146 25.2778 2.1122 26.4181 3.11707C27.5585 4.12195 28.4405 5.5561 29.0643 7.41951C29.6881 9.28293 30 11.1854 30 13.1268C30 15.0683 29.6881 16.9707 29.0643 18.8341C28.4405 20.6976 27.5634 22.1268 26.4327 23.122ZM18.6842 15.9512L20.5848 16.2732C20.4289 13.9317 19.5273 11.9317 17.8801 10.2732C16.2329 8.61463 14.2398 7.70732 11.9006 7.55122L12.2222 9.45366C13.8986 9.66829 15.3411 10.3805 16.5497 11.5902C17.7583 12.8 18.4698 14.2537 18.6842 15.9512ZM12.5439 11.4146L12.8947 13.522C13.6745 13.9122 14.2495 14.4878 14.6199 15.2488L16.7251 15.6C16.4912 14.5659 15.9942 13.6732 15.2339 12.922C14.4737 12.1707 13.577 11.6683 12.5439 11.4146ZM9.41521 13.1415V11.2683C9.41521 10.9366 9.29337 10.6049 9.04971 10.2732C8.80604 9.94146 8.54776 9.70244 8.27485 9.5561C8.00195 9.40976 7.79727 9.39512 7.66082 9.5122L6.31579 10.8878C5.55556 11.6488 5.44347 12.8341 5.97953 14.4439C6.51559 16.0537 7.53899 17.6146 9.04971 19.1268C10.5604 20.639 12.1199 21.6634 13.7281 22.2C15.3363 22.7366 16.5107 22.6244 17.2515 21.8634L18.6257 20.4878C18.7622 20.3707 18.7573 20.1707 18.6111 19.8878C18.4649 19.6049 18.2261 19.3463 17.8947 19.1122C17.5634 18.878 17.232 18.761 16.9006 18.761H15.0292L13.9474 19.6976C13.0897 19.4634 12.0224 18.7073 10.7456 17.4293C9.46881 16.1512 8.71345 15.0732 8.47953 14.1951L9.41521 13.1415ZM11.2865 3.77561L11.5789 5.67805C13.5283 5.71707 15.3314 6.22927 16.9883 7.21463C18.6452 8.2 19.961 9.51707 20.9357 11.1659C21.9103 12.8146 22.4269 14.6146 22.4854 16.5659L24.386 16.8878C24.386 15.1122 24.04 13.4146 23.348 11.7951C22.6559 10.1756 21.7251 8.78049 20.5556 7.60976C19.386 6.43902 17.9922 5.50732 16.3743 4.81463C14.7563 4.12195 13.0604 3.77561 11.2865 3.77561Z" fill="white"/>
</svg>
