<svg width="30" height="30" viewBox="0 0 30 30" fill="none" xmlns="http://www.w3.org/2000/svg">
<g clip-path="url(#clip0)">
<path fill-rule="evenodd" clip-rule="evenodd" d="M25.3755 4.18742C22.5728 1.38144 18.8455 -0.164351 14.8745 -0.166016C6.69223 -0.166016 0.0330906 6.49279 0.029762 14.6774C0.0287634 17.2937 0.712119 19.8474 2.01126 22.0988L-0.0947266 29.7911L7.77468 27.7267C9.94291 28.9094 12.3841 29.5328 14.8685 29.5335H14.8745C14.8749 29.5335 14.8742 29.5335 14.8745 29.5335C23.0558 29.5335 29.7156 22.874 29.719 14.6891C29.7206 10.7227 28.1782 6.99341 25.3755 4.18742ZM8.84615 15.2176C8.66075 14.97 7.33165 13.2065 7.33165 11.3808C7.33165 9.55508 8.28994 8.65769 8.62979 8.28656C8.96964 7.91542 9.37173 7.82256 9.61904 7.82256C9.86635 7.82256 10.114 7.82489 10.33 7.83554C10.5577 7.84719 10.8636 7.74899 11.1645 8.47229C11.4737 9.2149 12.2153 11.041 12.3082 11.2264C12.4011 11.4121 12.4626 11.6284 12.3392 11.8761C12.2157 12.1234 12.1537 12.2782 11.9683 12.4949C11.7829 12.7116 11.5789 12.9785 11.4118 13.1446C11.2261 13.3297 11.0327 13.5304 11.249 13.9015C11.4654 14.273 12.2097 15.4876 13.3124 16.4712C14.7291 17.735 15.9244 18.1265 16.2952 18.3122C16.666 18.498 16.8823 18.467 17.0987 18.2194C17.315 17.9717 18.026 17.1362 18.2733 16.7651C18.5206 16.394 18.768 16.4559 19.1078 16.5794C19.448 16.7032 21.2714 17.6006 21.6422 17.786C22.013 17.9717 22.2603 18.0646 22.3532 18.2194C22.446 18.3741 22.446 19.1167 22.1368 19.9832C21.8276 20.8496 20.3457 21.6405 19.633 21.7466C18.994 21.8422 18.1855 21.8821 17.2967 21.5995C16.7582 21.4288 16.0672 21.2004 15.1821 20.8183C11.4617 19.2116 9.03188 15.4653 8.84615 15.2176Z" fill="white"/>
</g>
<defs>
<clipPath id="clip0">
<rect width="30" height="30" fill="white"/>
</clipPath>
</defs>
</svg>
