<?xml version="1.0" standalone="no"?>
  <!DOCTYPE svg PUBLIC "-//W3C//DTD SVG 1.1//EN" "http://www.w3.org/Graphics/SVG/1.1/DTD/svg11.dtd" >
  <svg>
  <metadata>
  Created by font-carrier
  </metadata>
  <defs>
  <font id="AkzidenzGroteskPro-Super" horiz-adv-x="1438" vert-adv-y="1438" >
    <font-face
      
      font-family="Akzidenz-Grotesk Pro Super"
      
      font-weight="400"
      
      font-stretch="normal"
      
      units-per-em="1000"
      
      ascent="998"
      
      descent="-293"
      
    />
      <missing-glyph />

      

      
      <glyph glyph-name="uni21" unicode="&#x21;" d="M74 706L257 706L257 515L218 258L117 258L74 517L74 706M257 0L74 0L74 188L257 188L257 0Z"  horiz-adv-x="292" vert-adv-y="1000"  />

      
      <glyph glyph-name="uni22" unicode="&#x22;" d="M287 743L253 435L213 435L178 743L287 743M129 743L94 435L55 435L19 743L129 743Z"  horiz-adv-x="306" vert-adv-y="1000"  />

      
      <glyph glyph-name="uni23" unicode="&#x23;" d="M632 397L523 397L513 317L609 317L609 178L493 178L468 0L325 0L351 178L269 178L244 0L102 0L126 178L34 178L34 317L146 317L157 397L59 397L59 536L176 536L200 706L342 706L318 536L401 536L424 706L566 706L543 536L632 536L632 397M382 397L299 397L288 317L370 317L382 397Z"  horiz-adv-x="668" vert-adv-y="1000"  />

      
      <glyph glyph-name="uni24" unicode="&#x24;" d="M606 618L502 496Q464 524 443.50 532.50Q423 541 389 544L389 432Q427 428 466 416.50Q505 405 548.50 382Q592 359 619.50 316Q647 273 647 216Q647 155 621 109Q595 63 554 38.50Q513 14 471.50 1.50Q430-11 389-13L389-114L293-114L293-13Q196-2 144 14Q92 30 24 72L130 198Q179 165 212.50 153.50Q246 142 293 136L293 268Q245 278 214 286Q183 294 145.50 310.50Q108 327 86.50 347.50Q65 368 50 401Q35 434 35 477Q35 577 109 637.50Q183 698 293 698L293 763L389 763L389 695Q498 688 606 618M293 449L293 547Q275 547 250 533.50Q225 520 225 495Q225 479 238 469Q251 459 262 456Q273 453 293 449M389 253L389 138Q456 155 456 201Q456 217 447 227Q438 237 427 241Q416 245 389 253Z"  horiz-adv-x="667" vert-adv-y="1000"  />

      
      <glyph glyph-name="uni25" unicode="&#x25;" d="M699 706L397 0L306 0L607 706L699 706M416 470Q416 368 365 301Q314 234 215 234Q118 234 69 298Q20 362 20 461Q20 503 30.50 542Q41 581 63.50 616.50Q86 652 127 673.50Q168 695 223 695Q281 695 322.50 671.50Q364 648 382.50 610Q401 572 408.50 538.50Q416 505 416 470M277 468Q277 599 221 599Q201 599 188 588Q175 577 169 556Q163 535 161 514Q159 493 159 464Q159 389 172.50 361Q186 333 218 333Q247 333 262 363Q277 393 277 468M977 226Q977 124 926 57Q875-10 776-10Q679-10 630 54Q581 118 581 217Q581 259 591.50 298Q602 337 624.50 372.50Q647 408 688 429.50Q729 451 784 451Q842 451 883.50 427.50Q925 404 943.50 366Q962 328 969.50 294.50Q977 261 977 226M838 224Q838 355 782 355Q762 355 749 344Q736 333 730 312Q724 291 722 270Q720 249 720 220Q720 145 733.50 117Q747 89 779 89Q808 89 823 119Q838 149 838 224Z"  horiz-adv-x="1000" vert-adv-y="1000"  />

      
      <glyph glyph-name="uni26" unicode="&#x26;" d="M675 137L675 1Q621-5 592-5Q510-5 467 37Q387-15 279-15Q166-15 91.50 49Q17 113 17 212Q17 262 34.50 302Q52 342 83.50 368Q115 394 134.50 405.50Q154 417 181 430Q134 495 134 560Q134 634 188.50 673.50Q243 713 326 713Q391 713 435.50 696.50Q480 680 499 653Q518 626 524.50 604Q531 582 531 558Q531 499 493.50 450Q456 401 392 377Q432 327 477 277Q496 329 502 365L653 309Q618 201 584 150Q619 134 644 134Q658 134 675 137M319 487Q380 520 380 553Q380 568 367.50 580.50Q355 593 331 593Q286 593 286 554Q286 530 319 487M372 149Q348 179 256 299Q240 286 232 278Q224 270 214.50 252.50Q205 235 205 216Q205 174 231.50 150.50Q258 127 295 127Q337 127 372 149Z"  horiz-adv-x="688" vert-adv-y="1000"  />

      
      <glyph glyph-name="uni27" unicode="&#x27;" d="M129 743L94 435L55 435L19 743L129 743Z"  horiz-adv-x="148" vert-adv-y="1000"  />

      
      <glyph glyph-name="uni28" unicode="&#x28;" d="M355-85L291-166Q186-78 150-37Q27 106 27 308Q27 513 153 671Q208 740 286 803L355 733L342 717Q299 663 276.50 626Q254 589 237 543Q199 444 199 319Q199 199 234 100Q272-8 355-85Z"  horiz-adv-x="344" vert-adv-y="1000"  />

      
      <glyph glyph-name="uni29" unicode="&#x29;" d="M-11 719L53 800Q154 718 194 670Q317 526 317 326Q317 187 260 70Q207-39 73-156L58-169L-11-100L2-84Q74 4 107 91Q145 193 145 315Q145 573-11 719Z"  horiz-adv-x="344" vert-adv-y="1000"  />

      
      <glyph glyph-name="uni2a" unicode="&#x2a;" d="M423 516L323 482L384 404L287 327L219 413L155 326L54 400L113 480L13 509L48 628L152 598L152 705L277 705L277 598L383 634L423 516Z"  horiz-adv-x="437" vert-adv-y="1000"  />

      
      <glyph glyph-name="uni2b" unicode="&#x2b;" d="M633 258L462 258L462 64L262 64L262 258L91 258L91 411L262 411L262 600L462 600L462 411L633 411L633 258Z"  horiz-adv-x="724" vert-adv-y="1000"  />

      
      <glyph glyph-name="uni2c" unicode="&#x2c;" d="M34 188L216 188L216 37Q216-55 178-107.50Q140-160 34-177L34-89Q69-77 82-57.50Q95-38 96 0L34 0L34 188Z"  horiz-adv-x="250" vert-adv-y="1000"  />

      
      <glyph glyph-name="uni2d" unicode="&#x2d;" d="M344 230L29 230L29 401L344 401L344 230Z"  horiz-adv-x="373" vert-adv-y="1000"  />

      
      <glyph glyph-name="uni2e" unicode="&#x2e;" d="M216 0L34 0L34 188L216 188L216 0Z"  horiz-adv-x="250" vert-adv-y="1000"  />

      
      <glyph glyph-name="uni2f" unicode="&#x2f;" d="M497 706L196 0L1 0L304 706L497 706Z"  horiz-adv-x="500" vert-adv-y="1000"  />

      
      <glyph glyph-name="uni30" unicode="&#x30;" d="M623 351Q623 306 615 260Q607 214 585.50 162.50Q564 111 531 72Q498 33 441.50 7.50Q385-18 314-18Q172-18 96 80Q20 178 20 333Q20 401 36.50 463.50Q53 526 87.50 580.50Q122 635 183 667.50Q244 700 324 700Q458 700 540.50 610.50Q623 521 623 351M420 335Q420 447 399 505.50Q378 564 324 564Q290 564 268 541.50Q246 519 237.50 476.50Q229 434 226.50 401.50Q224 369 224 320Q224 283 226 258Q228 233 236.50 197.50Q245 162 266.50 142.50Q288 123 321 123Q420 123 420 335Z"  horiz-adv-x="646" vert-adv-y="1000"  />

      
      <glyph glyph-name="uni31" unicode="&#x31;" d="M463 0L257 0L257 456Q210 439 110 439L110 594L136 594Q187 594 230 615Q273 636 285 687L463 687L463 0Z"  horiz-adv-x="646" vert-adv-y="1000"  />

      
      <glyph glyph-name="uni32" unicode="&#x32;" d="M597 160L597 0L27 0L27 130Q125 194 190 242Q272 301 323 347Q347 369 360.50 383.50Q374 398 386 422.50Q398 447 398 473Q398 508 378 530.50Q358 553 316 553Q228 553 228 451Q228 424 235 401L32 425L32 441Q32 697 333 697Q477 697 541.50 635.50Q606 574 606 476Q606 383 537 309Q506 275 460.50 244Q415 213 322 160L597 160Z"  horiz-adv-x="646" vert-adv-y="1000"  />

      
      <glyph glyph-name="uni33" unicode="&#x33;" d="M246 281L246 417Q274 414 292 414Q404 414 404 489Q404 518 382.50 539.50Q361 561 311 561Q226 561 215 459L26 470Q51 699 324 699Q451 699 525 647Q599 595 599 506Q599 395 489 356Q516 348 535.50 339Q555 330 576.50 313Q598 296 609.50 268Q621 240 621 203Q621 98 541 42Q461-14 310-14Q248-14 199.50-4Q151 6 109.50 30Q68 54 41 98Q14 142 3 206L194 242Q203 127 306 127Q412 127 412 214Q412 286 300 286Q265 286 246 281Z"  horiz-adv-x="646" vert-adv-y="1000"  />

      
      <glyph glyph-name="uni34" unicode="&#x34;" d="M623 143L535 143L535 0L339 0L339 143L19 143L19 280L331 688L535 688L535 279L623 279L623 143M340 279L340 490L183 279L340 279Z"  horiz-adv-x="646" vert-adv-y="1000"  />

      
      <glyph glyph-name="uni35" unicode="&#x35;" d="M600 683L586 540L236 540L227 444Q281 474 360 474Q469 474 545 410Q621 346 621 243Q621 130 541.50 56.50Q462-17 317-17Q184-17 109 37Q34 91 16 208L220 228L220 220Q220 121 311 121Q358 121 385.50 150.50Q413 180 413 228Q413 278 384.50 306Q356 334 308 334Q248 334 224 290L52 311L91 683L600 683Z"  horiz-adv-x="646" vert-adv-y="1000"  />

      
      <glyph glyph-name="uni36" unicode="&#x36;" d="M610 523L415 493Q404 566 335 566Q273 566 240.50 515.50Q208 465 208 384Q265 455 386 455Q488 455 557.50 391Q627 327 627 227Q627 115 542.50 49Q458-17 333-17Q183-17 100.50 70Q18 157 18 325Q18 401 36.50 466.50Q55 532 92.50 585.50Q130 639 195 669.50Q260 700 346 700Q462 700 521 656.50Q580 613 610 523M430 222Q430 271 400.50 298.50Q371 326 330 326Q282 326 254 294Q226 262 226 221Q226 176 255 146Q284 116 328 116Q381 116 405.50 148.50Q430 181 430 222Z"  horiz-adv-x="646" vert-adv-y="1000"  />

      
      <glyph glyph-name="uni37" unicode="&#x37;" d="M43 533L43 689L594 689L594 557Q494 465 425 316.50Q356 168 335 0L120 0Q180 292 374 533L43 533Z"  horiz-adv-x="646" vert-adv-y="1000"  />

      
      <glyph glyph-name="uni38" unicode="&#x38;" d="M137 362Q53 412 53 503Q53 595 127.50 646.50Q202 698 330 698Q365 698 398.50 693.50Q432 689 469 675.50Q506 662 533.50 641.50Q561 621 579 585.50Q597 550 597 505Q597 459 579.50 427Q562 395 518 363Q626 313 626 200Q626 95 540.50 40Q455-15 317-15Q188-15 103 40Q18 95 18 195Q18 261 53.50 303Q89 345 137 362M411 496Q411 526 388 546Q365 566 320 566Q280 566 257 546.50Q234 527 234 496Q234 470 256 447Q278 424 324 424Q370 424 390.50 446.50Q411 469 411 496M426 205Q426 237 400.50 263.50Q375 290 321 290Q279 290 249 266.50Q219 243 219 201Q219 169 242.50 142Q266 115 321 115Q378 115 402 143Q426 171 426 205Z"  horiz-adv-x="646" vert-adv-y="1000"  />

      
      <glyph glyph-name="uni39" unicode="&#x39;" d="M34 161L229 190Q232 167 242.50 151Q253 135 266.50 128.50Q280 122 290 119.50Q300 117 309 117Q368 117 402 166Q436 215 436 286L436 300Q420 274 372.50 251Q325 228 262 228Q149 228 83 294.50Q17 361 17 456Q17 561 96.50 630.50Q176 700 311 700Q467 700 546.50 610Q626 520 626 358Q626 297 614.50 242.50Q603 188 577 140Q551 92 513 57.50Q475 23 418.50 3Q362-17 293-17Q192-17 124 26.50Q56 70 34 161M417 463Q417 510 389 538.50Q361 567 316 567Q266 567 240 535Q214 503 214 462Q214 415 242 386.50Q270 358 313 358Q359 358 388 386.50Q417 415 417 463Z"  horiz-adv-x="646" vert-adv-y="1000"  />

      
      <glyph glyph-name="uni3a" unicode="&#x3a;" d="M256 330L74 330L74 518L256 518L256 330M256 0L74 0L74 188L256 188L256 0Z"  horiz-adv-x="292" vert-adv-y="1000"  />

      
      <glyph glyph-name="uni3b" unicode="&#x3b;" d="M256 330L74 330L74 518L256 518L256 330M74 188L256 188L256 37Q256-55 218-107.50Q180-160 74-177L74-89Q109-77 122-57.50Q135-38 136 0L74 0L74 188Z"  horiz-adv-x="292" vert-adv-y="1000"  />

      
      <glyph glyph-name="uni3c" unicode="&#x3c;" d="M577 36L112 258L112 437L577 653L577 469L293 354L577 230L577 36Z"  horiz-adv-x="724" vert-adv-y="1000"  />

      
      <glyph glyph-name="uni3d" unicode="&#x3d;" d="M625 353L100 353L100 508L625 508L625 353M625 124L100 124L100 278L625 278L625 124Z"  horiz-adv-x="724" vert-adv-y="1000"  />

      
      <glyph glyph-name="uni3e" unicode="&#x3e;" d="M605 252L141 36L141 220L425 335L141 459L141 653L605 431L605 252Z"  horiz-adv-x="724" vert-adv-y="1000"  />

      
      <glyph glyph-name="uni3f" unicode="&#x3f;" d="M376 258L203 258Q206 306 226 339.50Q246 373 308 417Q332 433 345 443.50Q358 454 374.50 476Q391 498 391 519Q391 542 373 562.50Q355 583 316 583Q288 583 268 573.50Q248 564 238 545Q228 526 223.50 510.50Q219 495 216 472L46 529Q96 718 329 718Q443 718 518.50 669Q594 620 594 526Q594 457 549 411Q528 389 484 361.50Q440 334 410.50 310Q381 286 376 258M380 0L197 0L197 188L380 188L380 0Z"  horiz-adv-x="604" vert-adv-y="1000"  />

      
      <glyph glyph-name="uni40" unicode="&#x40;" d="M753 110L810 39Q740-22 684-55Q564-124 430-124Q304-124 203-66Q31 32 31 246Q31 441 168 577Q305 713 501 713Q643 713 727 632.50Q811 552 811 417Q811 275 737.50 170.50Q664 66 564 66Q529 66 504.50 84.50Q480 103 473 134Q418 67 349 67Q284 67 243.50 114Q203 161 203 237Q203 351 270 437Q337 523 426 523Q462 523 485.50 509.50Q509 496 533 463L543 503L647 503L605 307Q588 225 588 197Q588 172 605 172Q638 172 674 253.50Q710 335 710 406Q710 510 648.50 566Q587 622 483 622Q340 622 237.50 513Q135 404 135 252Q135 123 216.50 46.50Q298-30 435-30Q601-30 753 110M322 246Q322 210 338 189Q354 168 382 168Q426 168 462 223.50Q498 279 498 342Q498 379 480.50 400.50Q463 422 434 422Q390 422 356 368.50Q322 315 322 246Z"  horiz-adv-x="850" vert-adv-y="1000"  />

      
      <glyph glyph-name="uni41" unicode="&#x41;" d="M787 0L547 0L516 98L270 98L239 0L-1 0L269 706L523 706L787 0M470 256L395 505L318 256L470 256Z"  horiz-adv-x="792" vert-adv-y="1000"  />

      
      <glyph glyph-name="uni42" unicode="&#x42;" d="M44 706L461 706Q504 706 542 697.50Q580 689 614.50 669.50Q649 650 669 613.50Q689 577 689 527Q689 473 660.50 430Q632 387 579 365Q643 351 676 307Q709 263 709 202Q709 163 698.50 129.50Q688 96 664 65.50Q640 35 593 17.50Q546 0 481 0L44 0L44 706M267 557L267 437L390 437Q463 437 463 497Q463 527 444.50 542Q426 557 398 557L267 557M266 289L266 152L408 152Q441 152 461.50 170.50Q482 189 482 220Q482 255 459.50 272Q437 289 403 289L266 289Z"  horiz-adv-x="729" vert-adv-y="1000"  />

      
      <glyph glyph-name="uni43" unicode="&#x43;" d="M546 274L737 182Q628-22 393-22Q318-22 255.50 0.50Q193 23 151.50 60Q110 97 81 146Q52 195 39.50 246Q27 297 27 349Q27 516 131 624Q235 732 394 732Q462 732 520.50 713.50Q579 695 620.50 664.50Q662 634 690 602Q718 570 736 535L549 442L540 462Q530 481 525.50 488.50Q521 496 507.50 512.50Q494 529 481.50 537Q469 545 448.50 552Q428 559 404 559Q329 559 291.50 503.50Q254 448 254 368Q254 255 296.50 206.50Q339 158 403 158Q436 158 461.50 168.50Q487 179 503 199Q519 219 528 235Q537 251 546 274Z"  horiz-adv-x="750" vert-adv-y="1000"  />

      
      <glyph glyph-name="uni44" unicode="&#x44;" d="M44 0L44 706L351 706Q433 706 496 690.50Q559 675 612.50 638Q666 601 695 530Q724 459 724 357Q724 182 640 91Q556 0 397 0L44 0M268 162L356 162Q393 162 420.50 176.50Q448 191 462.50 211.50Q477 232 486 260Q495 288 497.50 309.50Q500 331 500 353Q500 377 497.50 399Q495 421 486 448Q477 475 463 494.50Q449 514 423 527.50Q397 541 362 541L268 541L268 162Z"  horiz-adv-x="750" vert-adv-y="1000"  />

      
      <glyph glyph-name="uni45" unicode="&#x45;" d="M633 0L44 0L44 706L603 706L603 551L268 551L268 446L581 446L581 293L267 293L267 153L633 153L633 0Z"  horiz-adv-x="646" vert-adv-y="1000"  />

      
      <glyph glyph-name="uni46" unicode="&#x46;" d="M602 551L266 551L266 424L580 424L580 271L266 271L266 0L44 0L44 706L602 706L602 551Z"  horiz-adv-x="625" vert-adv-y="1000"  />

      
      <glyph glyph-name="uni47" unicode="&#x47;" d="M757 517L558 461Q549 513 512 539.50Q475 566 421 566Q333 566 293.50 507.50Q254 449 254 364Q254 252 302.50 201Q351 150 427 150Q476 150 515.50 174.50Q555 199 560 249L429 249L429 391L753 391L753 0L586 0L586 49Q495-19 374-19Q316-19 257.50 2.50Q199 24 146 66.50Q93 109 60 182.50Q27 256 27 348Q27 454 69.50 540.50Q112 627 199 681Q286 735 403 735Q478 735 549 712.50Q620 690 679 639Q738 588 757 517Z"  horiz-adv-x="792" vert-adv-y="1000"  />

      
      <glyph glyph-name="uni48" unicode="&#x48;" d="M705 0L480 0L480 272L267 272L267 0L44 0L44 706L267 706L267 449L480 449L480 706L705 706L705 0Z"  horiz-adv-x="750" vert-adv-y="1000"  />

      
      <glyph glyph-name="uni49" unicode="&#x49;" d="M268 0L44 0L44 706L268 706L268 0Z"  horiz-adv-x="313" vert-adv-y="1000"  />

      
      <glyph glyph-name="uni4a" unicode="&#x4a;" d="M148 706L371 706L371 196Q371 135 357 95.50Q343 56 312 35.50Q281 15 243.50 7.50Q206 0 149 0L0 0L0 174Q32 168 57 168Q109 168 128.50 186.50Q148 205 148 249L148 706Z"  horiz-adv-x="417" vert-adv-y="1000"  />

      
      <glyph glyph-name="uni4b" unicode="&#x4b;" d="M779 0L528 0L372 282L267 167L267 0L44 0L44 706L267 706L267 439L489 706L761 706L516 438L779 0Z"  horiz-adv-x="771" vert-adv-y="1000"  />

      
      <glyph glyph-name="uni4c" unicode="&#x4c;" d="M540 0L44 0L44 706L267 706L267 178L540 178L540 0Z"  horiz-adv-x="542" vert-adv-y="1000"  />

      
      <glyph glyph-name="uni4d" unicode="&#x4d;" d="M911 0L698 0L698 502L559 0L393 0L255 502L255 0L43 0L43 706L363 706L478 267L591 706L911 706L911 0Z"  horiz-adv-x="958" vert-adv-y="1000"  />

      
      <glyph glyph-name="uni4e" unicode="&#x4e;" d="M726 0L485 0L252 405L252 0L44 0L44 706L281 706L517 306L517 706L726 706L726 0Z"  horiz-adv-x="771" vert-adv-y="1000"  />

      
      <glyph glyph-name="uni4f" unicode="&#x4f;" d="M784 359Q784 286 760.50 219Q737 152 692 97Q647 42 572 9.50Q497-23 402-23Q231-23 128.50 78.50Q26 180 26 353Q26 425 48 491Q70 557 114.50 612Q159 667 234 699.50Q309 732 406 732Q499 732 573 701Q647 670 692 617.50Q737 565 760.50 499Q784 433 784 359M250 351Q250 258 290.50 207Q331 156 406 156Q470 156 514.50 205.50Q559 255 559 365Q559 463 515 508.50Q471 554 406 554Q335 554 292.50 501Q250 448 250 351Z"  horiz-adv-x="812" vert-adv-y="1000"  />

      
      <glyph glyph-name="uni50" unicode="&#x50;" d="M44 706L468 706Q585 706 646.50 643.50Q708 581 708 476Q708 367 644.50 298.50Q581 230 464 230L268 230L268 0L44 0L44 706M268 558L268 378L395 378Q436 378 461 402Q486 426 486 469Q486 506 464 532Q442 558 394 558L268 558Z"  horiz-adv-x="708" vert-adv-y="1000"  />

      
      <glyph glyph-name="uni51" unicode="&#x51;" d="M822 72L754-82Q725-78 705-72.50Q685-67 648-45.50Q611-24 579 12Q509-24 398-24Q230-24 128.50 79.50Q27 183 27 354Q27 523 129.50 628Q232 733 411 733Q498 733 566 706Q634 679 674 638.50Q714 598 740 545.50Q766 493 775 448.50Q784 404 784 362Q784 337 780 303.50Q776 270 757.50 214.50Q739 159 710 120Q776 76 822 72M557 361Q557 452 517.50 503Q478 554 405 554Q340 554 296.50 505Q253 456 253 350Q253 256 292 206Q331 156 403 156Q477 156 517 211.50Q557 267 557 361Z"  horiz-adv-x="812" vert-adv-y="1000"  />

      
      <glyph glyph-name="uni52" unicode="&#x52;" d="M44 706L441 706Q489 706 531 695.50Q573 685 610.50 661Q648 637 670 590.50Q692 544 692 480Q692 409 658 361.50Q624 314 547 285L720 0L470 0L333 249L268 249L268 0L44 0L44 706M268 394L361 394Q391 394 411.50 398Q432 402 450.50 421.50Q469 441 469 476Q469 504 459 521.50Q449 539 430 546.50Q411 554 396 556Q381 558 359 558L268 558L268 394Z"  horiz-adv-x="708" vert-adv-y="1000"  />

      
      <glyph glyph-name="uni53" unicode="&#x53;" d="M696 604L555 487Q529 526 477 542.50Q425 559 370 559Q290 559 290 513Q290 489 316 477.50Q342 466 414 454Q462 446 491 439.50Q520 433 564.50 416.50Q609 400 635 379Q661 358 680.50 321Q700 284 700 236Q700 170 673 119.50Q646 69 599.50 39Q553 9 495.50-6Q438-21 373-21Q120-21 7 134L178 244Q201 196 257.50 173.50Q314 151 375 151Q481 151 481 205Q481 234 448 246Q415 258 309 276Q66 319 66 489Q66 543 86 586Q106 629 137 655.50Q168 682 210 699Q252 716 292.50 722.50Q333 729 375 729Q474 729 558.50 698Q643 667 696 604Z"  horiz-adv-x="729" vert-adv-y="1000"  />

      
      <glyph glyph-name="uni54" unicode="&#x54;" d="M581 532L402 532L402 0L179 0L179 532L-1 532L-1 706L581 706L581 532Z"  horiz-adv-x="583" vert-adv-y="1000"  />

      
      <glyph glyph-name="uni55" unicode="&#x55;" d="M42 706L266 706L266 259Q266 154 363 154Q461 154 461 265L461 706L686 706L686 283Q686 137 595 59Q504-19 361-19Q222-19 132 50Q42 119 42 263L42 706Z"  horiz-adv-x="729" vert-adv-y="1000"  />

      
      <glyph glyph-name="uni56" unicode="&#x56;" d="M708 706L469 0L236 0L0 706L228 706L354 273L479 706L708 706Z"  horiz-adv-x="708" vert-adv-y="1000"  />

      
      <glyph glyph-name="uni57" unicode="&#x57;" d="M1040 706L864 0L625 0L518 440L414 0L174 0L-2 706L216 706L316 245L424 706L613 706L726 245L823 706L1040 706Z"  horiz-adv-x="1042" vert-adv-y="1000"  />

      
      <glyph glyph-name="uni58" unicode="&#x58;" d="M833 0L570 0L416 254L260 0L-2 0L271 379L42 706L304 706L416 512L530 706L785 706L562 380L833 0Z"  horiz-adv-x="833" vert-adv-y="1000"  />

      
      <glyph glyph-name="uni59" unicode="&#x59;" d="M788 706L504 297L504 0L280 0L280 297L-3 706L255 706L394 471L530 706L788 706Z"  horiz-adv-x="792" vert-adv-y="1000"  />

      
      <glyph glyph-name="uni5a" unicode="&#x5a;" d="M654 562L298 172L653 172L653 0L2 0L2 141L364 537L23 537L23 706L654 706L654 562Z"  horiz-adv-x="667" vert-adv-y="1000"  />

      
      <glyph glyph-name="uni5b" unicode="&#x5b;" d="M284-144L44-144L44 779L284 779L284 684L200 684L200-49L284-49L284-144Z"  horiz-adv-x="299" vert-adv-y="1000"  />

      
      <glyph glyph-name="uni5c" unicode="&#x5c;" d="M497 0L304 0L1 706L196 706L497 0Z"  horiz-adv-x="500" vert-adv-y="1000"  />

      
      <glyph glyph-name="uni5d" unicode="&#x5d;" d="M255-144L14-144L14-49L99-49L99 684L14 684L14 779L255 779L255-144Z"  horiz-adv-x="299" vert-adv-y="1000"  />

      
      <glyph glyph-name="uni5e" unicode="&#x5e;" d="M669 279L472 279L370 534L264 279L56 279L274 706L458 706L669 279Z"  horiz-adv-x="724" vert-adv-y="1000"  />

      
      <glyph glyph-name="uni5f" unicode="&#x5f;" d="M510-240L-10-240L-10-113L510-113L510-240Z"  horiz-adv-x="500" vert-adv-y="1000"  />

      
      <glyph glyph-name="uni60" unicode="&#x60;" d="M301 587L174 587L12 724L225 724L301 587Z"  horiz-adv-x="313" vert-adv-y="1000"  />

      
      <glyph glyph-name="uni61" unicode="&#x61;" d="M580 0L377 0L377 40Q348 21 331 12Q314 3 281-4.50Q248-12 205-12Q124-12 71.50 32.50Q19 77 19 155Q19 241 90 289Q131 317 233 331Q335 345 367 356Q365 387 351.50 401Q338 415 297 415Q263 415 248.50 403.50Q234 392 230 367Q63 363 36 362Q40 382 43.50 393.50Q47 405 56 425.50Q65 446 76.50 459Q88 472 109 488Q130 504 157 513Q184 522 225 528.50Q266 535 316 535Q367 535 406.50 528Q446 521 483.50 503Q521 485 541.50 448Q562 411 562 357L562 64Q562 37 565.50 26Q569 15 580 0M366 222L366 241Q353 235 309 224.50Q265 214 237.50 199.50Q210 185 210 161Q210 146 222.50 133.50Q235 121 261 121Q301 121 333.50 150Q366 179 366 222Z"  horiz-adv-x="604" vert-adv-y="1000"  />

      
      <glyph glyph-name="uni62" unicode="&#x62;" d="M42 706L247 706L247 482Q298 533 379 533Q480 533 542.50 462Q605 391 605 270Q605 258 604 244Q603 230 598 200.50Q593 171 584.50 145Q576 119 558.50 89Q541 59 517.50 37.50Q494 16 456 1.50Q418-13 371-13Q279-13 241 38L241 0L42 0L42 706M402 260Q402 312 383.50 349Q365 386 323 386Q292 386 272.50 363.50Q253 341 247.50 315.50Q242 290 242 260Q242 136 322 136Q355 136 378.50 165.50Q402 195 402 260Z"  horiz-adv-x="625" vert-adv-y="1000"  />

      
      <glyph glyph-name="uni63" unicode="&#x63;" d="M403 225L561 138Q549 111 530 86Q511 61 480 35.50Q449 10 401-5Q353-20 294-20Q169-20 93.50 57Q18 134 18 262Q18 391 95.50 466Q173 541 307 541Q480 541 560 406L404 318Q396 340 389 353.50Q382 367 362.50 381.50Q343 396 315 396Q280 396 258 370.50Q236 345 229 315.50Q222 286 222 255Q222 137 312 137Q350 137 374.50 167.50Q399 198 403 225Z"  horiz-adv-x="577" vert-adv-y="1000"  />

      
      <glyph glyph-name="uni64" unicode="&#x64;" d="M582 0L382 0L382 37Q346-13 252-13Q145-13 82 63.50Q19 140 19 277Q19 392 82 462.50Q145 533 246 533Q322 533 377 482L377 706L582 706L582 0M382 261Q382 326 359.50 356Q337 386 301 386Q265 386 243.50 355.50Q222 325 222 260Q222 136 303 136Q382 136 382 261Z"  horiz-adv-x="625" vert-adv-y="1000"  />

      
      <glyph glyph-name="uni65" unicode="&#x65;" d="M588 222L227 222Q227 209 229.50 196.50Q232 184 239.50 165.50Q247 147 265.50 136Q284 125 312 125Q329 125 343 129.50Q357 134 366.50 140Q376 146 384 155Q392 164 396 170Q400 176 404 184L408 192L577 121Q542 64 474.50 21.50Q407-21 304-21Q244-21 194.50-4Q145 13 113 41Q81 69 58.50 106.50Q36 144 26.50 183Q17 222 17 262Q17 334 43 390Q69 446 111.50 477.50Q154 509 202.50 524.50Q251 540 302 540Q439 540 513.50 458.50Q588 377 588 254L588 222M229 331L379 331Q376 369 356 389Q336 409 306 409Q270 409 249.50 381.50Q229 354 229 331Z"  horiz-adv-x="604" vert-adv-y="1000"  />

      
      <glyph glyph-name="uni66" unicode="&#x66;" d="M375 394L282 394L282 0L76 0L76 394L-1 394L-1 506L76 506L76 560Q76 582 79 601Q82 620 94 642.50Q106 665 125.50 681Q145 697 181.50 707.50Q218 718 267 718Q331 718 375 704L375 564Q356 571 337 571Q282 571 282 514L282 506L375 506L375 394Z"  horiz-adv-x="375" vert-adv-y="1000"  />

      
      <glyph glyph-name="uni67" unicode="&#x67;" d="M20-7L207-7L207-15Q207-74 288-74Q336-74 360.50-54.50Q385-35 385 12L385 78Q354 25 247 25Q186 25 139.50 47Q93 69 67.50 106Q42 143 30 185Q18 227 18 274Q18 387 78 459.50Q138 532 262 532Q359 532 404 469L404 518L582 518L582 19Q582-195 287-195Q228-195 186-189Q144-183 103-165.50Q62-148 41-111.50Q20-75 20-20L20-7M380 277Q380 389 304 389Q214 389 214 269Q214 206 236.50 183.50Q259 161 295 161Q380 161 380 277Z"  horiz-adv-x="625" vert-adv-y="1000"  />

      
      <glyph glyph-name="uni68" unicode="&#x68;" d="M603 0L397 0L397 296Q397 370 323 370Q247 370 247 292L247 0L41 0L41 706L246 706L246 466Q302 540 411 540Q446 540 477 531.50Q508 523 538 503.50Q568 484 585.50 444.50Q603 405 603 349L603 0Z"  horiz-adv-x="646" vert-adv-y="1000"  />

      
      <glyph glyph-name="uni69" unicode="&#x69;" d="M248 569L42 569L42 706L248 706L248 569M248 0L42 0L42 518L248 518L248 0Z"  horiz-adv-x="292" vert-adv-y="1000"  />

      
      <glyph glyph-name="uni6a" unicode="&#x6a;" d="M249 569L43 569L43 706L249 706L249 569M43 518L249 518L249-32Q249-130 193.50-162Q138-194 11-194L-34-194L-34-43L-17-43Q43-43 43 13L43 518Z"  horiz-adv-x="292" vert-adv-y="1000"  />

      
      <glyph glyph-name="uni6b" unicode="&#x6b;" d="M648 0L413 0L301 197L247 145L247 0L41 0L41 706L247 706L247 370L388 518L639 518L442 331L648 0Z"  horiz-adv-x="646" vert-adv-y="1000"  />

      
      <glyph glyph-name="uni6c" unicode="&#x6c;" d="M248 0L41 0L41 706L248 706L248 0Z"  horiz-adv-x="292" vert-adv-y="1000"  />

      
      <glyph glyph-name="uni6d" unicode="&#x6d;" d="M955 0L749 0L749 281Q749 361 677 361Q602 361 602 281L602 0L396 0L396 284Q396 322 375.50 341.50Q355 361 324 361Q310 361 295.50 357Q281 353 264.50 333.50Q248 314 248 281L248 0L41 0L41 518L240 518L240 444Q283 530 403 530Q538 530 583 434Q631 530 765 530Q849 530 902 483.50Q955 437 955 347L955 0Z"  horiz-adv-x="1000" vert-adv-y="1000"  />

      
      <glyph glyph-name="uni6e" unicode="&#x6e;" d="M598 0L392 0L392 283Q392 319 377 340Q362 361 321 361Q247 361 247 278L247 0L41 0L41 518L236 518L236 449Q285 531 406 531Q500 531 549 479.50Q598 428 598 331L598 0Z"  horiz-adv-x="646" vert-adv-y="1000"  />

      
      <glyph glyph-name="uni6f" unicode="&#x6f;" d="M624 258Q624 139 544 59.50Q464-20 315-20Q187-20 103.50 51Q20 122 20 255Q20 378 98.50 459Q177 540 322 540Q470 540 547 460Q624 380 624 258M416 263Q416 395 320 395Q271 395 248 358.50Q225 322 225 261Q225 124 321 124Q416 124 416 263Z"  horiz-adv-x="646" vert-adv-y="1000"  />

      
      <glyph glyph-name="uni70" unicode="&#x70;" d="M42 518L243 518L243 478Q290 532 380 532Q494 532 550 453Q606 374 606 256Q606 139 549 63Q492-13 378-13Q284-13 244 35L244-188L42-188L42 518M403 262Q403 310 385.50 346Q368 382 326 382Q242 382 242 256Q242 132 321 132Q403 132 403 262Z"  horiz-adv-x="625" vert-adv-y="1000"  />

      
      <glyph glyph-name="uni71" unicode="&#x71;" d="M584-188L381-188L381 35Q331-13 247-13Q132-13 75.50 63Q19 139 19 256Q19 290 24 323.50Q29 357 44 396Q59 435 83 464Q107 493 149 512.50Q191 532 246 532Q337 532 383 478L383 518L584 518L584-188M304 132Q384 132 384 257Q384 382 302 382Q222 382 222 253Q222 184 247 158Q272 132 304 132Z"  horiz-adv-x="625" vert-adv-y="1000"  />

      
      <glyph glyph-name="uni72" unicode="&#x72;" d="M411 529L411 355Q395 357 367 357Q348 357 330.50 353.50Q313 350 292 340Q271 330 258.50 307.50Q246 285 246 252L246 0L41 0L41 518L239 518L239 473Q279 509 316 519Q353 529 411 529Z"  horiz-adv-x="417" vert-adv-y="1000"  />

      
      <glyph glyph-name="uni73" unicode="&#x73;" d="M508 464L397 363Q396 364 385 370.50Q374 377 367.50 381Q361 385 347 391.50Q333 398 321.50 402Q310 406 294.50 409Q279 412 264 412Q220 412 220 386Q220 372 234.50 365Q249 358 303 346L377 329Q447 313 485 273Q523 233 523 173Q523 87 454 33.50Q385-20 277-20Q120-20-1 84L115 189Q139 162 183 140.50Q227 119 275 119Q329 119 329 153Q329 166 317.50 173Q306 180 277 185Q225 194 190 203Q155 212 121.50 226Q88 240 68.50 257.50Q49 275 37.50 301.50Q26 328 26 362Q26 434 86 486.50Q146 539 261 539Q419 539 508 464Z"  horiz-adv-x="542" vert-adv-y="1000"  />

      
      <glyph glyph-name="uni74" unicode="&#x74;" d="M279 506L368 506L368 394L276 394L276 195Q276 180 278 170.50Q280 161 293.50 151Q307 141 332 141Q349 141 369 145L369 4Q276-7 239-7Q187-7 152 5.50Q117 18 100 41Q83 64 76.50 88Q70 112 70 143L70 394L0 394L0 506L73 506L73 669L279 669L279 506Z"  horiz-adv-x="375" vert-adv-y="1000"  />

      
      <glyph glyph-name="uni75" unicode="&#x75;" d="M602 0L406 0L406 76Q391 39 347.50 13Q304-13 235-13Q195-13 162-3Q129 7 100 29.50Q71 52 55 94Q39 136 39 195L39 518L246 518L246 232Q246 152 321 152Q395 152 395 237L395 518L602 518L602 0Z"  horiz-adv-x="646" vert-adv-y="1000"  />

      
      <glyph glyph-name="uni76" unicode="&#x76;" d="M561 518L389 0L170 0L-3 518L215 518L278 208L345 518L561 518Z"  horiz-adv-x="562" vert-adv-y="1000"  />

      
      <glyph glyph-name="uni77" unicode="&#x77;" d="M851 518L696 0L491 0L423 307L360 0L155 0L-1 518L209 518L273 197L336 518L513 518L578 198L640 518L851 518Z"  horiz-adv-x="854" vert-adv-y="1000"  />

      
      <glyph glyph-name="uni78" unicode="&#x78;" d="M606 0L386 0L301 168L217 0L-4 0L170 272L16 518L237 518L301 363L369 518L591 518L434 273L606 0Z"  horiz-adv-x="604" vert-adv-y="1000"  />

      
      <glyph glyph-name="uni79" unicode="&#x79;" d="M366 518L581 518L392-30Q363-114 324-150.50Q285-187 207-187Q106-187 78-180L78-33Q85-33 97-34Q109-35 118.50-35.50Q128-36 137-36Q180-36 180-11Q180-4 164 42L0 518L215 518L288 188L366 518Z"  horiz-adv-x="583" vert-adv-y="1000"  />

      
      <glyph glyph-name="uni7a" unicode="&#x7a;" d="M529 400L288 155L527 155L527 0L8 0L8 114L254 364L39 364L39 518L529 518L529 400Z"  horiz-adv-x="542" vert-adv-y="1000"  />

      
      <glyph glyph-name="uni7b" unicode="&#x7b;" d="M320-149L231-149Q152-149 123.50-115Q95-81 95 1L95 162Q95 226 79 243.50Q63 261 8 268L8 366Q61 371 78 390.50Q95 410 95 472L95 642Q95 715 123 748Q151 781 222 781L320 781L320 686L305 686Q272 686 262 664Q252 642 252 602L252 451Q252 389 235 362Q218 335 169 316Q216 302 234 273Q252 244 252 182L252 44Q252-6 263-30Q274-54 310-54L320-54L320-149Z"  horiz-adv-x="332" vert-adv-y="1000"  />

      
      <glyph glyph-name="uni7c" unicode="&#x7c;" d="M210-144L54-144L54 779L210 779L210-144Z"  horiz-adv-x="264" vert-adv-y="1000"  />

      
      <glyph glyph-name="uni7d" unicode="&#x7d;" d="M12 687L12 781L108 781Q179 781 208.50 746.50Q238 712 238 634L238 469Q238 407 253.50 389.50Q269 372 324 365L324 267Q272 262 255 243Q238 224 238 161L238 12Q238-81 209-115Q180-149 99-149L12-149L12-54L28-54Q60-54 70-32.50Q80-11 80 38L80 182Q80 244 97 271Q114 298 163 317Q117 331 98.50 360Q80 389 80 451L80 614Q80 687 22 687L12 687Z"  horiz-adv-x="332" vert-adv-y="1000"  />

      
      <glyph glyph-name="uni7e" unicode="&#x7e;" d="M607 461L655 302Q575 203 491 203Q449 203 369 241L333 258Q267 289 230 289Q201 289 182 276Q163 263 127 221L117 209L69 370Q109 425 144.50 447Q180 469 228 469Q272 469 343 436L406 407Q461 382 484 382Q516 382 543 399Q570 416 607 461Z"  horiz-adv-x="724" vert-adv-y="1000"  />

      
      <glyph glyph-name="unia1" unicode="&#xa1;" d="M215 518L32 518L32 706L215 706L215 518M215 0L32 0L32 192L71 448L172 448L215 190L215 0Z"  horiz-adv-x="292" vert-adv-y="1000"  />

      
      <glyph glyph-name="unia2" unicode="&#xa2;" d="M408 217L566 131Q540 65 476.50 26.50Q413-12 356-19L356-147L256-147L256-19Q139-3 81 69Q23 141 23 248Q23 354 82.50 436.50Q142 519 256 531L256 647L356 647L356 532Q493 521 562 401L407 313Q406 314 401.50 326Q397 338 394 343Q391 348 383.50 358.50Q376 369 368 374.50Q360 380 347 384.50Q334 389 318 389Q274 389 250.50 354Q227 319 227 253Q227 132 313 132Q329 132 342.50 137.50Q356 143 365 150Q374 157 382 168Q390 179 394 186.50Q398 194 402.50 205Q407 216 408 217Z"  horiz-adv-x="583" vert-adv-y="1000"  />

      
      <glyph glyph-name="unia3" unicode="&#xa3;" d="M707 234L707 166Q707 73 663 28.50Q619-16 540-16Q454-16 355 55Q318 22 278 4Q238-14 177-14Q154-14 130-9Q106-4 78 8.50Q50 21 32.50 47.50Q15 74 15 112Q15 158 45.50 189.50Q76 221 111 232Q146 243 179 243Q193 243 213 240.50Q233 238 235 238Q225 258 197 299L63 299L63 400L132 400Q131 401 125 409Q119 417 116.50 421Q114 425 109 433.50Q104 442 101 449.50Q98 457 95 467.50Q92 478 90.50 490Q89 502 89 515Q89 534 93.50 555Q98 576 115.50 605.50Q133 635 162 657.50Q191 680 245 696Q299 712 371 712Q434 712 483 702.50Q532 693 575 669.50Q618 646 641.50 601Q665 556 665 490L665 456L487 456L487 479Q487 515 464 541Q441 567 383 567Q327 567 306 543Q285 519 285 492Q285 456 330 400L486 400L486 299L396 299Q422 257 422 210Q422 199 418 168Q474 130 500 130Q518 130 527 141.50Q536 153 537.50 164.50Q539 176 539 194Q539 216 535 234L707 234M247 127Q211 145 185 145Q167 145 152.50 137Q138 129 138 111Q138 97 149 89.50Q160 82 175 82Q196 82 216 95Q236 108 247 127Z"  horiz-adv-x="729" vert-adv-y="1000"  />

      
      <glyph glyph-name="unia4" unicode="&#xa4;" d="M677 570L596 490Q638 419 638 340Q638 260 595 187L676 105L580 10L499 92Q427 50 350 50Q268 50 198 94L117 12L22 107L104 189Q60 254 60 337Q60 417 103 490L23 570L118 665L198 585Q265 628 351 628Q428 628 500 585L581 666L677 570M481 338Q481 395 443 434Q405 473 350 473Q295 473 256.50 434Q218 395 218 339Q218 283 256 244.50Q294 206 350 206Q405 206 443 244.50Q481 283 481 338Z"  horiz-adv-x="700" vert-adv-y="1000"  />

      
      <glyph glyph-name="unia5" unicode="&#xa5;" d="M788 698L634 478L710 478L710 356L548 356L504 293L504 286L710 286L710 164L504 164L504 0L280 0L280 164L82 164L82 286L280 286L280 293L236 356L82 356L82 478L151 478L-3 698L255 698L393 460L530 698L788 698Z"  horiz-adv-x="792" vert-adv-y="1000"  />

      
      <glyph glyph-name="unia6" unicode="&#xa6;" d="M210 382L54 382L54 779L210 779L210 382M210-144L54-144L54 253L210 253L210-144Z"  horiz-adv-x="264" vert-adv-y="1000"  />

      
      <glyph glyph-name="unia7" unicode="&#xa7;" d="M54-68L153 38Q190 13 241.50-8Q293-29 335-29Q377-29 377-5Q377 11 353.50 25Q330 39 267 65Q198 94 159.50 113Q121 132 84 159.50Q47 187 32 219Q17 251 17 294Q17 328 26 355Q35 382 53 401.50Q71 421 83 430.50Q95 440 115 453Q81 498 81 540Q81 601 132.50 653Q184 705 288 705Q344 705 399 690.50Q454 676 486 660.50Q518 645 561 620L468 515Q364 572 287 572Q246 572 246 550Q246 539 256.50 531Q267 523 293 512L377 476Q422 457 447 445Q472 433 507 411.50Q542 390 560 369.50Q578 349 592 318.50Q606 288 606 252Q606 220 597 193.50Q588 167 569 146.50Q550 126 538.50 116Q527 106 506 90Q540 57 540 0Q540-66 484-112.50Q428-159 329-159Q275-159 220.50-143.50Q166-128 136.50-113Q107-98 54-68M397 288L207 381Q173 345 173 321Q173 293 200 273.50Q227 254 284 229Q392 180 413 169Q449 198 449 228Q449 264 397 288Z"  horiz-adv-x="625" vert-adv-y="1000"  />

      
      <glyph glyph-name="unia8" unicode="&#xa8;" d="M362 605L196 605L196 724L362 724L362 605M117 605L-49 605L-49 724L117 724L117 605Z"  horiz-adv-x="313" vert-adv-y="1000"  />

      
      <glyph glyph-name="unia9" unicode="&#xa9;" d="M527 290L608 198Q563 154 521 135.50Q479 117 423 117Q317 117 252 182.50Q187 248 187 354Q187 459 253 525.50Q319 592 423 592Q481 592 523 573.50Q565 555 608 511L526 417Q500 446 478.50 457Q457 468 426 468Q379 468 349.50 435.50Q320 403 320 351Q320 302 349 271.50Q378 241 425 241Q455 241 476 251Q497 261 527 290M773 360Q773 205 671 101Q569-3 416-3Q268-3 164.50 101Q61 205 61 353Q61 502 164.50 605.50Q268 709 417 709Q563 709 668 606.50Q773 504 773 360M717 346Q717 480 630.50 570.50Q544 661 416 661Q292 661 204.50 570.50Q117 480 117 352Q117 224 204 134.50Q291 45 416 45Q539 45 628 134Q717 223 717 346Z"  horiz-adv-x="833" vert-adv-y="1000"  />

      
      <glyph glyph-name="uniaa" unicode="&#xaa;" d="M376 374L246 374L246 400Q208 366 142 366Q76 366 47.50 399Q19 432 19 474Q19 512 42 539Q50 549 61 556.50Q72 564 81 568Q90 572 105 576Q120 580 126.50 581.50Q133 583 150 585.50Q167 588 170 588Q215 595 240 601Q238 620 230 628.50Q222 637 197 637Q177 637 167 631.50Q157 626 154 607L30 604Q46 715 198 715Q280 715 322.50 689.50Q365 664 365 602L365 401Q365 386 376 374M239 526L192 512Q176 507 167.50 504Q159 501 151 494Q143 487 143 478Q143 465 152.50 458.50Q162 452 174 452Q200 452 219.50 472Q239 492 239 518L239 526Z"  horiz-adv-x="396" vert-adv-y="1000"  />

      
      <glyph glyph-name="uniab" unicode="&#xab;" d="M383 100L225 225L225 408L383 533L383 384L293 315L383 248L383 100M189 100L32 225L32 408L189 533L189 384L100 315L189 248L189 100Z"  horiz-adv-x="417" vert-adv-y="1000"  />

      
      <glyph glyph-name="uniac" unicode="&#xac;" d="M633 31L433 31L433 253L67 253L67 411L633 411L633 31Z"  horiz-adv-x="724" vert-adv-y="1000"  />

      
      <glyph glyph-name="uniad" unicode="&#xad;" d="M344 230L29 230L29 401L344 401L344 230Z"  horiz-adv-x="374" vert-adv-y="1000"  />

      
      <glyph glyph-name="uniae" unicode="&#xae;" d="M773 360Q773 205 671 101Q569-3 416-3Q268-3 164.50 101Q61 205 61 353Q61 502 164.50 605.50Q268 709 417 709Q563 709 668 606.50Q773 504 773 360M717 346Q717 480 630.50 570.50Q544 661 416 661Q292 661 204.50 570.50Q117 480 117 352Q117 224 204 134.50Q291 45 416 45Q539 45 628 134Q717 223 717 346M616 144L481 144L417 299L380 299L380 144L254 144L254 576L396 576Q497 576 534 555Q602 516 602 436Q602 358 530 316L616 144M379 389L416 389Q449 389 463 400Q477 411 477 436Q477 482 415 482L379 482L379 389Z"  horiz-adv-x="833" vert-adv-y="1000"  />

      
      <glyph glyph-name="uniaf" unicode="&#xaf;" d="M352 598L-39 598L-39 705L352 705L352 598Z"  horiz-adv-x="313" vert-adv-y="1000"  />

      
      <glyph glyph-name="unib0" unicode="&#xb0;" d="M349 573Q349 502 298.50 452Q248 402 177 402Q106 402 55.50 452Q5 502 5 573Q5 645 55 695Q105 745 177 745Q249 745 299 695Q349 645 349 573M137.50 613.50Q137.50 613.50 129.25 605.25Q121 597 121 574Q121 551 137.50 534.50Q154 518 177 518Q200 518 216.50 534.50Q233 551 233 574Q233 597 216.50 613.50Q200 630 177 630Q154 630 137.50 613.50Z"  horiz-adv-x="354" vert-adv-y="1000"  />

      
      <glyph glyph-name="unib1" unicode="&#xb1;" d="M633 383L461 383L461 205L262 205L262 383L91 383L91 535L263 535L263 706L462 706L462 535L633 535L633 383M632 0L91 0L91 154L632 154L632 0Z"  horiz-adv-x="724" vert-adv-y="1000"  />

      
      <glyph glyph-name="unib2" unicode="&#xb2;" d="M20 243L20 332Q131 394 198.50 446.50Q266 499 266 544Q266 569 250 581Q234 593 211 593Q155 593 155 531Q155 518 159 494L22 511Q22 543 26 567Q30 591 43 615.50Q56 640 77.50 656Q99 672 137 682Q175 692 226 692Q319 692 363 653.50Q407 615 407 549Q407 513 395 484.50Q383 456 354.50 431Q326 406 305.50 392Q285 378 242 353L401 353L401 243L20 243Z"  horiz-adv-x="437" vert-adv-y="1000"  />

      
      <glyph glyph-name="unib3" unicode="&#xb3;" d="M177 424L177 516L201 516Q218 516 228.50 517.50Q239 519 251 528.50Q263 538 263 557Q263 575 249.50 586.50Q236 598 209 598Q180 598 166.50 585Q153 572 149 544L22 552Q42 694 216 694Q303 694 349 659.50Q395 625 395 567Q395 510 338 475Q372 464 390.50 437.50Q409 411 409 379Q409 354 401.50 332Q394 310 375 286.50Q356 263 314.50 249Q273 235 213 235Q120 235 72 267.50Q24 300 9 371L137 395Q142 334 209 334Q269 334 269 383Q269 424 205 424L177 424Z"  horiz-adv-x="437" vert-adv-y="1000"  />

      
      <glyph glyph-name="unib4" unicode="&#xb4;" d="M301 724L140 587L12 587L89 724L301 724Z"  horiz-adv-x="313" vert-adv-y="1000"  />

      
      <glyph glyph-name="unib5" unicode="&#xb5;" d="M52 517L260 517L260 254Q260 137 331 137Q371 137 384.50 173Q398 209 398 306L398 517L605 517L605 188Q605 138 639 138Q652 138 668 145L668 0Q618-14 559-14Q460-14 422 64Q410 25 391 8.50Q372-8 338-8Q279-8 256 49Q259-194 259-216L52-216L52 517Z"  horiz-adv-x="676" vert-adv-y="1000"  />

      
      <glyph glyph-name="unib6" unicode="&#xb6;" d="M556 610L520 610L520-167L418-167L418 610L319 610L319-167L216-167L216 292Q62 332 62 491Q62 592 128 652Q161 683 200 694.50Q239 706 311 706L556 706L556 610Z"  horiz-adv-x="637" vert-adv-y="1000"  />

      
      <glyph glyph-name="unib7" unicode="&#xb7;" d="M218 212L32 212L32 397L218 397L218 212Z"  horiz-adv-x="250" vert-adv-y="1000"  />

      
      <glyph glyph-name="unib8" unicode="&#xb8;" d="M127 5L174-10L150-59Q156-57 176-57Q206-57 233-73Q260-89 260-130Q260-168 226-193Q192-218 139-218Q92-218 53-211L56-156Q76-160 78-160Q121-160 121-137Q121-122 96-122Q81-122 58-128L61-92L127 5Z"  horiz-adv-x="313" vert-adv-y="1000"  />

      
      <glyph glyph-name="unib9" unicode="&#xb9;" d="M309 243L170 243L170 528Q140 520 102 520L77 520L77 626L86 626Q134 626 155.50 639Q177 652 188 685L309 685L309 243Z"  horiz-adv-x="437" vert-adv-y="1000"  />

      
      <glyph glyph-name="uniba" unicode="&#xba;" d="M15 536Q15 620 68 668.50Q121 717 207 717Q252 717 287.50 704.50Q323 692 343.50 673.50Q364 655 377 630Q390 605 394.50 583Q399 561 399 539Q399 455 344 408Q289 361 202 361Q121 361 68 407.50Q15 454 15 536M266 540Q266 623 210 623Q147 623 147 534Q147 455 206 455Q266 455 266 540Z"  horiz-adv-x="417" vert-adv-y="1000"  />

      
      <glyph glyph-name="unibb" unicode="&#xbb;" d="M383 225L225 100L225 249L315 318L225 385L225 533L383 408L383 225M189 225L32 100L32 249L122 318L32 385L32 533L189 408L189 225Z"  horiz-adv-x="417" vert-adv-y="1000"  />

      
      <glyph glyph-name="unibc" unicode="&#xbc;" d="M699 706L397 0L306 0L607 706L699 706M309 243L170 243L170 528Q140 520 102 520L77 520L77 626L86 626Q134 626 155.50 639Q177 652 188 685L309 685L309 243M976 89L913 89L913 0L783 0L783 89L573 89L573 177L777 443L913 443L913 186L976 186L976 89M697 186L784 186Q786 284 788 317Q741 243 697 186Z"  horiz-adv-x="1000" vert-adv-y="1000"  />

      
      <glyph glyph-name="unibd" unicode="&#xbd;" d="M583 0L583 89Q694 151 761.50 203.50Q829 256 829 301Q829 326 813 338Q797 350 773 350Q718 350 718 288Q718 278 719.50 265Q721 252 721 251L585 268Q585 308 592.50 337Q600 366 620 393Q640 420 682 434Q724 448 788 448Q881 448 925.50 409.50Q970 371 970 306Q970 277 959.50 251.50Q949 226 937 209Q925 192 898 171Q871 150 855 140.50Q839 131 804 110L964 110L964 0L583 0M676 706L374 0L282 0L584 706L676 706M309 243L170 243L170 528Q140 520 102 520L77 520L77 626L86 626Q134 626 155.50 639Q177 652 188 685L309 685L309 243Z"  horiz-adv-x="1000" vert-adv-y="1000"  />

      
      <glyph glyph-name="unibe" unicode="&#xbe;" d="M976 89L913 89L913 0L783 0L783 89L573 89L573 177L777 443L913 443L913 186L976 186L976 89M699 706L396 0L305 0L606 706L699 706M697 186L784 186Q786 284 788 317Q741 243 697 186M177 424L177 516L201 516Q218 516 228.50 517.50Q239 519 251 528.50Q263 538 263 557Q263 575 249.50 586.50Q236 598 209 598Q180 598 166.50 585Q153 572 149 544L22 552Q42 694 216 694Q303 694 349 659.50Q395 625 395 567Q395 510 338 475Q372 464 390.50 437.50Q409 411 409 379Q409 354 401.50 332Q394 310 375 286.50Q356 263 314.50 249Q273 235 213 235Q120 235 72 267.50Q24 300 9 371L137 395Q142 334 209 334Q269 334 269 383Q269 424 205 424L177 424Z"  horiz-adv-x="1000" vert-adv-y="1000"  />

      
      <glyph glyph-name="unibf" unicode="&#xbf;" d="M228 448L401 448Q398 400 378 366.50Q358 333 296 289Q272 273 259 262.50Q246 252 229.50 230Q213 208 213 187Q213 164 231 143.50Q249 123 288 123Q316 123 336 132.50Q356 142 366 161Q376 180 380.50 195.50Q385 211 388 234L558 177Q508-12 275-12Q161-12 85.50 37Q10 86 10 180Q10 249 55 295Q76 317 120 344.50Q164 372 193.50 396Q223 420 228 448M224 706L407 706L407 518L224 518L224 706Z"  horiz-adv-x="604" vert-adv-y="1000"  />

      
      <glyph glyph-name="unic0" unicode="&#xc0;" d="M787 0L547 0L516 98L270 98L239 0L-1 0L269 706L523 706L787 0M470 256L395 505L318 256L470 256M488 754L356 754L206 874L423 874L488 754Z"  horiz-adv-x="792" vert-adv-y="1000"  />

      
      <glyph glyph-name="unic1" unicode="&#xc1;" d="M787 0L547 0L516 98L270 98L239 0L-1 0L269 706L523 706L787 0M470 256L395 505L318 256L470 256M587 874L437 754L306 754L370 874L587 874Z"  horiz-adv-x="792" vert-adv-y="1000"  />

      
      <glyph glyph-name="unic2" unicode="&#xc2;" d="M787 0L547 0L516 98L270 98L239 0L-1 0L269 706L523 706L787 0M470 256L395 505L318 256L470 256M575 751L431 751L397 804L366 751L225 751L318 874L479 874L575 751Z"  horiz-adv-x="792" vert-adv-y="1000"  />

      
      <glyph glyph-name="unic3" unicode="&#xc3;" d="M787 0L547 0L516 98L270 98L239 0L-1 0L269 706L523 706L787 0M470 256L395 505L318 256L470 256M480 886L576 886Q573 864 570 848Q567 832 559 812Q551 792 540.50 779.50Q530 767 512 758.50Q494 750 470 750Q444 750 401 765.50Q358 781 345 781Q322 781 320 751L229 751Q237 815 259.50 850.50Q282 886 331 886Q362 886 403 872.50Q444 859 453 859Q476 859 480 886Z"  horiz-adv-x="792" vert-adv-y="1000"  />

      
      <glyph glyph-name="unic4" unicode="&#xc4;" d="M787 0L547 0L516 98L270 98L239 0L-1 0L269 706L523 706L787 0M470 256L395 505L318 256L470 256M594 757L428 757L428 876L594 876L594 757M364 757L199 757L199 876L364 876L364 757Z"  horiz-adv-x="792" vert-adv-y="1000"  />

      
      <glyph glyph-name="unic5" unicode="&#xc5;" d="M787 0L547 0L516 98L270 98L239 0L-1 0L269 706L523 706L787 0M470 256L395 505L318 256L470 256M430 831Q430 846 419.50 856.50Q409 867 394 867Q379 867 368.50 856Q358 845 358 831Q358 816 368.50 805Q379 794 394 794Q409 794 419.50 804.50Q430 815 430 831M480 900Q480 900 495 884.50Q510 869 510 831Q510 793 480 761.50Q450 730 394 730Q338 730 308 760Q278 790 278 831Q278 868 307.50 899.50Q337 931 394 931Q450 931 480 900Z"  horiz-adv-x="792" vert-adv-y="1000"  />

      
      <glyph glyph-name="unic6" unicode="&#xc6;" d="M1089 0L513 0L513 100L286 100L235 0L-17 0L396 706L1054 706L1054 553L729 553L729 447L1029 447L1029 292L729 292L729 155L1089 155L1089 0M514 544L366 254L514 254L514 544Z"  horiz-adv-x="1104" vert-adv-y="1000"  />

      
      <glyph glyph-name="unic7" unicode="&#xc7;" d="M736 535L549 442L540 462Q530 481 525.50 488.50Q521 496 507.50 512.50Q494 529 481.50 537Q469 545 448.50 552Q428 559 404 559Q330 559 292 502.50Q254 446 254 368Q254 255 296.50 206.50Q339 158 403 158Q436 158 461.50 168.50Q487 179 503 199Q519 219 528 235Q537 251 546 274L737 182Q718 147 696.50 118.50Q675 90 637.50 56.50Q600 23 542 2Q484-19 412-22L395-67Q423-60 438-60Q476-60 498-83.50Q520-107 520-139Q520-183 483-210.50Q446-238 383-238Q357-238 309-232L309-173Q331-177 342-177Q382-177 382-152Q382-145 374.50-138Q367-131 352-131Q336-131 308-143L308-98L358-21Q273-15 207 21Q141 57 103 110.50Q65 164 46 225Q27 286 27 349Q27 516 131 624Q235 732 394 732Q462 732 520 714Q578 696 619.50 665Q661 634 688.50 602.50Q716 571 736 535Z"  horiz-adv-x="750" vert-adv-y="1000"  />

      
      <glyph glyph-name="unic8" unicode="&#xc8;" d="M633 0L44 0L44 706L603 706L603 551L268 551L268 446L581 446L581 293L267 293L267 153L633 153L633 0M415 754L283 754L133 874L350 874L415 754Z"  horiz-adv-x="646" vert-adv-y="1000"  />

      
      <glyph glyph-name="unic9" unicode="&#xc9;" d="M633 0L44 0L44 706L603 706L603 551L268 551L268 446L581 446L581 293L267 293L267 153L633 153L633 0M513 874L363 754L232 754L296 874L513 874Z"  horiz-adv-x="646" vert-adv-y="1000"  />

      
      <glyph glyph-name="unica" unicode="&#xca;" d="M633 0L44 0L44 706L603 706L603 551L268 551L268 446L581 446L581 293L267 293L267 153L633 153L633 0M502 751L358 751L324 804L293 751L152 751L245 874L406 874L502 751Z"  horiz-adv-x="646" vert-adv-y="1000"  />

      
      <glyph glyph-name="unicb" unicode="&#xcb;" d="M633 0L44 0L44 706L603 706L603 551L268 551L268 446L581 446L581 293L267 293L267 153L633 153L633 0M523 757L357 757L357 876L523 876L523 757M293 757L128 757L128 876L293 876L293 757Z"  horiz-adv-x="646" vert-adv-y="1000"  />

      
      <glyph glyph-name="unicc" unicode="&#xcc;" d="M268 0L44 0L44 706L268 706L268 0M249 754L117 754L-33 874L184 874L249 754Z"  horiz-adv-x="313" vert-adv-y="1000"  />

      
      <glyph glyph-name="unicd" unicode="&#xcd;" d="M268 0L44 0L44 706L268 706L268 0M346 874L196 754L65 754L129 874L346 874Z"  horiz-adv-x="313" vert-adv-y="1000"  />

      
      <glyph glyph-name="unice" unicode="&#xce;" d="M268 0L44 0L44 706L268 706L268 0M335 751L191 751L157 804L126 751L-15 751L78 874L239 874L335 751Z"  horiz-adv-x="313" vert-adv-y="1000"  />

      
      <glyph glyph-name="unicf" unicode="&#xcf;" d="M268 0L44 0L44 706L268 706L268 0M356 757L190 757L190 876L356 876L356 757M126 757L-39 757L-39 876L126 876L126 757Z"  horiz-adv-x="313" vert-adv-y="1000"  />

      
      <glyph glyph-name="unid0" unicode="&#xd0;" d="M44 0L44 300L0 300L0 431L44 431L44 706L351 706Q433 706 496 690.50Q559 675 612.50 638Q666 601 695 530Q724 459 724 357Q724 182 640 91Q556 0 397 0L44 0M268 162L353 162Q398 162 429.50 182.50Q461 203 475 236Q489 269 494 296.50Q499 324 499 353Q499 383 494 411.50Q489 440 475.50 471.50Q462 503 432.50 522Q403 541 360 541L268 541L268 431L412 431L412 300L268 300L268 162Z"  horiz-adv-x="750" vert-adv-y="1000"  />

      
      <glyph glyph-name="unid1" unicode="&#xd1;" d="M726 0L485 0L252 405L252 0L44 0L44 706L281 706L517 306L517 706L726 706L726 0M470 886L566 886Q563 864 560 848Q557 832 549 812Q541 792 530.50 779.50Q520 767 502 758.50Q484 750 460 750Q434 750 391 765.50Q348 781 335 781Q312 781 310 751L219 751Q227 815 249.50 850.50Q272 886 321 886Q352 886 393 872.50Q434 859 443 859Q466 859 470 886Z"  horiz-adv-x="771" vert-adv-y="1000"  />

      
      <glyph glyph-name="unid2" unicode="&#xd2;" d="M784 359Q784 286 760.50 219Q737 152 692 97Q647 42 572 9.50Q497-23 402-23Q231-23 128.50 78.50Q26 180 26 353Q26 425 48 491Q70 557 114.50 612Q159 667 234 699.50Q309 732 406 732Q499 732 573 701Q647 670 692 617.50Q737 565 760.50 499Q784 433 784 359M250 351Q250 258 290.50 207Q331 156 406 156Q470 156 514.50 205.50Q559 255 559 365Q559 463 515 508.50Q471 554 406 554Q335 554 292.50 501Q250 448 250 351M498 754L366 754L216 874L433 874L498 754Z"  horiz-adv-x="812" vert-adv-y="1000"  />

      
      <glyph glyph-name="unid3" unicode="&#xd3;" d="M784 359Q784 286 760.50 219Q737 152 692 97Q647 42 572 9.50Q497-23 402-23Q231-23 128.50 78.50Q26 180 26 353Q26 425 48 491Q70 557 114.50 612Q159 667 234 699.50Q309 732 406 732Q499 732 573 701Q647 670 692 617.50Q737 565 760.50 499Q784 433 784 359M250 351Q250 258 290.50 207Q331 156 406 156Q470 156 514.50 205.50Q559 255 559 365Q559 463 515 508.50Q471 554 406 554Q335 554 292.50 501Q250 448 250 351M596 874L446 754L315 754L379 874L596 874Z"  horiz-adv-x="812" vert-adv-y="1000"  />

      
      <glyph glyph-name="unid4" unicode="&#xd4;" d="M784 359Q784 286 760.50 219Q737 152 692 97Q647 42 572 9.50Q497-23 402-23Q231-23 128.50 78.50Q26 180 26 353Q26 425 48 491Q70 557 114.50 612Q159 667 234 699.50Q309 732 406 732Q499 732 573 701Q647 670 692 617.50Q737 565 760.50 499Q784 433 784 359M250 351Q250 258 290.50 207Q331 156 406 156Q470 156 514.50 205.50Q559 255 559 365Q559 463 515 508.50Q471 554 406 554Q335 554 292.50 501Q250 448 250 351M585 751L441 751L407 804L376 751L235 751L328 874L489 874L585 751Z"  horiz-adv-x="812" vert-adv-y="1000"  />

      
      <glyph glyph-name="unid5" unicode="&#xd5;" d="M784 359Q784 286 760.50 219Q737 152 692 97Q647 42 572 9.50Q497-23 402-23Q231-23 128.50 78.50Q26 180 26 353Q26 425 48 491Q70 557 114.50 612Q159 667 234 699.50Q309 732 406 732Q499 732 573 701Q647 670 692 617.50Q737 565 760.50 499Q784 433 784 359M250 351Q250 258 290.50 207Q331 156 406 156Q470 156 514.50 205.50Q559 255 559 365Q559 463 515 508.50Q471 554 406 554Q335 554 292.50 501Q250 448 250 351M490 886L586 886Q583 864 580 848Q577 832 569 812Q561 792 550.50 779.50Q540 767 522 758.50Q504 750 480 750Q454 750 411 765.50Q368 781 355 781Q332 781 330 751L239 751Q247 815 269.50 850.50Q292 886 341 886Q372 886 413 872.50Q454 859 463 859Q486 859 490 886Z"  horiz-adv-x="812" vert-adv-y="1000"  />

      
      <glyph glyph-name="unid6" unicode="&#xd6;" d="M784 359Q784 286 760.50 219Q737 152 692 97Q647 42 572 9.50Q497-23 402-23Q231-23 128.50 78.50Q26 180 26 353Q26 425 48 491Q70 557 114.50 612Q159 667 234 699.50Q309 732 406 732Q499 732 573 701Q647 670 692 617.50Q737 565 760.50 499Q784 433 784 359M250 351Q250 258 290.50 207Q331 156 406 156Q470 156 514.50 205.50Q559 255 559 365Q559 463 515 508.50Q471 554 406 554Q335 554 292.50 501Q250 448 250 351M604 757L438 757L438 876L604 876L604 757M374 757L209 757L209 876L374 876L374 757Z"  horiz-adv-x="812" vert-adv-y="1000"  />

      
      <glyph glyph-name="unid7" unicode="&#xd7;" d="M627 224L493 77L350 208L234 82L122 185L237 311L98 439L233 586L372 458L488 585L600 482L484 355L627 224Z"  horiz-adv-x="724" vert-adv-y="1000"  />

      
      <glyph glyph-name="unid8" unicode="&#xd8;" d="M735 729L801 658L718 580Q784 482 784 361Q784 320 775 275Q766 230 740 175Q714 120 674 77.50Q634 35 564.50 6Q495-23 406-23Q336-23 267-3.50Q198 16 156 53L79-19L14 50L92 124Q68 168 58 190Q48 212 38 255.50Q28 299 28 353Q28 372 30 394.50Q32 417 41 455.50Q50 494 64.50 529.50Q79 565 107.50 603Q136 641 174 669Q212 697 270.50 715Q329 733 401 733Q564 733 655 654L735 729M255 277L509 516Q477 557 409 557Q394 557 381 555.50Q368 554 341.50 543.50Q315 533 296.50 513.50Q278 494 263.50 453Q249 412 249 356Q249 329 255 277M556 429L301 188Q347 152 400 152Q478 152 519.50 206Q561 260 561 358Q561 391 556 429Z"  horiz-adv-x="812" vert-adv-y="1000"  />

      
      <glyph glyph-name="unid9" unicode="&#xd9;" d="M42 706L266 706L266 259Q266 154 363 154Q461 154 461 265L461 706L686 706L686 283Q686 137 595 59Q504-19 361-19Q222-19 132 50Q42 119 42 263L42 706M457 754L325 754L175 874L392 874L457 754Z"  horiz-adv-x="729" vert-adv-y="1000"  />

      
      <glyph glyph-name="unida" unicode="&#xda;" d="M42 706L266 706L266 259Q266 154 363 154Q461 154 461 265L461 706L686 706L686 283Q686 137 595 59Q504-19 361-19Q222-19 132 50Q42 119 42 263L42 706M556 874L406 754L275 754L339 874L556 874Z"  horiz-adv-x="729" vert-adv-y="1000"  />

      
      <glyph glyph-name="unidb" unicode="&#xdb;" d="M42 706L266 706L266 259Q266 154 363 154Q461 154 461 265L461 706L686 706L686 283Q686 137 595 59Q504-19 361-19Q222-19 132 50Q42 119 42 263L42 706M544 751L400 751L366 804L335 751L194 751L287 874L448 874L544 751Z"  horiz-adv-x="729" vert-adv-y="1000"  />

      
      <glyph glyph-name="unidc" unicode="&#xdc;" d="M42 706L266 706L266 259Q266 154 363 154Q461 154 461 265L461 706L686 706L686 283Q686 137 595 59Q504-19 361-19Q222-19 132 50Q42 119 42 263L42 706M561 757L395 757L395 876L561 876L561 757M331 757L166 757L166 876L331 876L331 757Z"  horiz-adv-x="729" vert-adv-y="1000"  />

      
      <glyph glyph-name="unidd" unicode="&#xdd;" d="M788 706L504 297L504 0L280 0L280 297L-3 706L255 706L394 471L530 706L788 706M597 874L447 754L316 754L380 874L597 874Z"  horiz-adv-x="792" vert-adv-y="1000"  />

      
      <glyph glyph-name="unide" unicode="&#xde;" d="M44 706L268 706L268 606L447 606Q537 606 585 585Q627 567 654.50 536Q682 505 692 470.50Q702 436 705 417Q708 398 708 379Q708 282 659 218Q618 163 565 146.50Q512 130 440 130L268 130L268 0L44 0L44 706M268 458L268 278L395 278Q442 278 464.50 302.50Q487 327 487 369Q487 458 386 458L268 458Z"  horiz-adv-x="708" vert-adv-y="1000"  />

      
      <glyph glyph-name="unidf" unicode="&#xdf;" d="M41 0L41 472Q41 601 113 656.50Q185 712 322 712Q363 712 400.50 704Q438 696 476.50 677.50Q515 659 538 621Q561 583 561 530Q561 442 496 408Q548 396 574.50 355.50Q601 315 601 225Q601-13 379-13Q329-13 285 8L285 138Q317 118 336 118Q375 118 389.50 146Q404 174 404 235Q404 301 384.50 323Q365 345 303 345L303 455Q309 453 320 453Q341 453 357 469Q373 485 373 519Q373 588 311 588Q272 588 259 564.50Q246 541 246 500L246 0L41 0Z"  horiz-adv-x="625" vert-adv-y="1000"  />

      
      <glyph glyph-name="unie0" unicode="&#xe0;" d="M580 0L377 0L377 40Q348 21 331 12Q314 3 281-4.50Q248-12 205-12Q124-12 71.50 32.50Q19 77 19 155Q19 241 90 289Q131 317 233 331Q335 345 367 356Q365 387 351.50 401Q338 415 297 415Q263 415 248.50 403.50Q234 392 230 367Q63 363 36 362Q40 382 43.50 393.50Q47 405 56 425.50Q65 446 76.50 459Q88 472 109 488Q130 504 157 513Q184 522 225 528.50Q266 535 316 535Q367 535 406.50 528Q446 521 483.50 503Q521 485 541.50 448Q562 411 562 357L562 64Q562 37 565.50 26Q569 15 580 0M366 222L366 241Q353 235 309 224.50Q265 214 237.50 199.50Q210 185 210 161Q210 146 222.50 133.50Q235 121 261 121Q301 121 333.50 150Q366 179 366 222M414 587L287 587L125 724L338 724L414 587Z"  horiz-adv-x="604" vert-adv-y="1000"  />

      
      <glyph glyph-name="unie1" unicode="&#xe1;" d="M580 0L377 0L377 40Q348 21 331 12Q314 3 281-4.50Q248-12 205-12Q124-12 71.50 32.50Q19 77 19 155Q19 241 90 289Q131 317 233 331Q335 345 367 356Q365 387 351.50 401Q338 415 297 415Q263 415 248.50 403.50Q234 392 230 367Q63 363 36 362Q40 382 43.50 393.50Q47 405 56 425.50Q65 446 76.50 459Q88 472 109 488Q130 504 157 513Q184 522 225 528.50Q266 535 316 535Q367 535 406.50 528Q446 521 483.50 503Q521 485 541.50 448Q562 411 562 357L562 64Q562 37 565.50 26Q569 15 580 0M366 222L366 241Q353 235 309 224.50Q265 214 237.50 199.50Q210 185 210 161Q210 146 222.50 133.50Q235 121 261 121Q301 121 333.50 150Q366 179 366 222M511 724L350 587L222 587L299 724L511 724Z"  horiz-adv-x="604" vert-adv-y="1000"  />

      
      <glyph glyph-name="unie2" unicode="&#xe2;" d="M580 0L377 0L377 40Q348 21 331 12Q314 3 281-4.50Q248-12 205-12Q124-12 71.50 32.50Q19 77 19 155Q19 241 90 289Q131 317 233 331Q335 345 367 356Q365 387 351.50 401Q338 415 297 415Q263 415 248.50 403.50Q234 392 230 367Q63 363 36 362Q40 382 43.50 393.50Q47 405 56 425.50Q65 446 76.50 459Q88 472 109 488Q130 504 157 513Q184 522 225 528.50Q266 535 316 535Q367 535 406.50 528Q446 521 483.50 503Q521 485 541.50 448Q562 411 562 357L562 64Q562 37 565.50 26Q569 15 580 0M366 222L366 241Q353 235 309 224.50Q265 214 237.50 199.50Q210 185 210 161Q210 146 222.50 133.50Q235 121 261 121Q301 121 333.50 150Q366 179 366 222M488 586L345 586L304 652L264 586L121 586L227 724L383 724L488 586Z"  horiz-adv-x="604" vert-adv-y="1000"  />

      
      <glyph glyph-name="unie3" unicode="&#xe3;" d="M580 0L377 0L377 40Q348 21 331 12Q314 3 281-4.50Q248-12 205-12Q124-12 71.50 32.50Q19 77 19 155Q19 241 90 289Q131 317 233 331Q335 345 367 356Q365 387 351.50 401Q338 415 297 415Q263 415 248.50 403.50Q234 392 230 367Q63 363 36 362Q40 382 43.50 393.50Q47 405 56 425.50Q65 446 76.50 459Q88 472 109 488Q130 504 157 513Q184 522 225 528.50Q266 535 316 535Q367 535 406.50 528Q446 521 483.50 503Q521 485 541.50 448Q562 411 562 357L562 64Q562 37 565.50 26Q569 15 580 0M366 222L366 241Q353 235 309 224.50Q265 214 237.50 199.50Q210 185 210 161Q210 146 222.50 133.50Q235 121 261 121Q301 121 333.50 150Q366 179 366 222M211 586L124 586Q127 618 130.50 637.50Q134 657 143.50 681.50Q153 706 171.50 718.50Q190 731 218 731Q244 731 295.50 713.50Q347 696 359 696Q374 696 379 703.50Q384 711 386 727L475 727Q473 695 468.50 672.50Q464 650 455 627Q446 604 427.50 592.50Q409 581 382 581Q356 581 301.50 599Q247 617 234 617Q213 617 211 586Z"  horiz-adv-x="604" vert-adv-y="1000"  />

      
      <glyph glyph-name="unie4" unicode="&#xe4;" d="M580 0L377 0L377 40Q348 21 331 12Q314 3 281-4.50Q248-12 205-12Q124-12 71.50 32.50Q19 77 19 155Q19 241 90 289Q131 317 233 331Q335 345 367 356Q365 387 351.50 401Q338 415 297 415Q263 415 248.50 403.50Q234 392 230 367Q63 363 36 362Q40 382 43.50 393.50Q47 405 56 425.50Q65 446 76.50 459Q88 472 109 488Q130 504 157 513Q184 522 225 528.50Q266 535 316 535Q367 535 406.50 528Q446 521 483.50 503Q521 485 541.50 448Q562 411 562 357L562 64Q562 37 565.50 26Q569 15 580 0M366 222L366 241Q353 235 309 224.50Q265 214 237.50 199.50Q210 185 210 161Q210 146 222.50 133.50Q235 121 261 121Q301 121 333.50 150Q366 179 366 222M526 605L360 605L360 724L526 724L526 605M281 605L115 605L115 724L281 724L281 605Z"  horiz-adv-x="604" vert-adv-y="1000"  />

      
      <glyph glyph-name="unie5" unicode="&#xe5;" d="M580 0L377 0L377 40Q348 21 331 12Q314 3 281-4.50Q248-12 205-12Q124-12 71.50 32.50Q19 77 19 155Q19 241 90 289Q131 317 233 331Q335 345 367 356Q365 387 351.50 401Q338 415 297 415Q263 415 248.50 403.50Q234 392 230 367Q63 363 36 362Q40 382 43.50 393.50Q47 405 56 425.50Q65 446 76.50 459Q88 472 109 488Q130 504 157 513Q184 522 225 528.50Q266 535 316 535Q367 535 406.50 528Q446 521 483.50 503Q521 485 541.50 448Q562 411 562 357L562 64Q562 37 565.50 26Q569 15 580 0M366 222L366 241Q353 235 309 224.50Q265 214 237.50 199.50Q210 185 210 161Q210 146 222.50 133.50Q235 121 261 121Q301 121 333.50 150Q366 179 366 222M242.50 612.50Q242.50 612.50 226.25 628.75Q210 645 210 691Q210 737 242.50 769.50Q275 802 321 802Q367 802 399.50 769.50Q432 737 432 691Q432 645 399.50 612.50Q367 580 321 580Q275 580 242.50 612.50M295.50 716.50Q295.50 716.50 290.25 711.25Q285 706 285 691Q285 676 295.50 665.50Q306 655 321 655Q336 655 346.50 665.50Q357 676 357 691Q357 706 346.50 716.50Q336 727 321 727Q306 727 295.50 716.50Z"  horiz-adv-x="604" vert-adv-y="1000"  />

      
      <glyph glyph-name="unie6" unicode="&#xe6;" d="M921 223L561 223L561 207Q561 168 585.50 146Q610 124 649 124Q687 124 706.50 141.50Q726 159 745 194L913 123Q869 58 807 18.50Q745-21 644-21Q527-21 452 42Q340-21 228-21Q169-21 126-5Q83 11 60.50 37.50Q38 64 27.50 92Q17 120 17 150Q17 223 68 270Q96 296 144 308.50Q192 321 261.50 330Q331 339 367 348Q367 362 365.50 370.50Q364 379 358.50 391.50Q353 404 338 410Q323 416 300 416Q272 416 256 407.50Q240 399 236.50 389.50Q233 380 230 363Q53 359 36 359Q39 410 66 447Q93 484 133.50 503Q174 522 214 530Q254 538 293 538Q426 538 488 495Q519 512 534.50 519Q550 526 579.50 532.50Q609 539 646 539Q765 539 843 463Q921 387 921 255L921 223M564 330L711 330Q711 367 692 386Q673 405 640 405Q573 405 564 330M373 236Q348 228 317.50 220.50Q287 213 270 209Q253 205 237 198.50Q221 192 214.50 183Q208 174 208 160Q208 140 223.50 129Q239 118 260 118Q307 118 342 155Q368 182 373 236Z"  horiz-adv-x="938" vert-adv-y="1000"  />

      
      <glyph glyph-name="unie7" unicode="&#xe7;" d="M403 225L561 138Q536 81 479.50 35.50Q423-10 329-19L309-59Q315-57 335-57Q365-57 392-74Q419-91 419-130Q419-169 386-193.50Q353-218 300-218Q250-218 212-211L215-156Q235-160 237-160Q280-160 280-137Q280-122 255-122Q240-122 217-128L220-92L269-20Q154-12 86 64.50Q18 141 18 262Q18 391 95.50 466Q173 541 307 541Q480 541 560 406L404 318Q396 340 389 353.50Q382 367 362.50 381.50Q343 396 315 396Q280 396 258 370.50Q236 345 229 315.50Q222 286 222 255Q222 137 312 137Q350 137 374.50 167.50Q399 198 403 225Z"  horiz-adv-x="577" vert-adv-y="1000"  />

      
      <glyph glyph-name="unie8" unicode="&#xe8;" d="M588 222L227 222Q227 209 229.50 196.50Q232 184 239.50 165.50Q247 147 265.50 136Q284 125 312 125Q329 125 343 129.50Q357 134 366.50 140Q376 146 384 155Q392 164 396 170Q400 176 404 184L408 192L577 121Q542 64 474.50 21.50Q407-21 304-21Q244-21 194.50-4Q145 13 113 41Q81 69 58.50 106.50Q36 144 26.50 183Q17 222 17 262Q17 334 43 390Q69 446 111.50 477.50Q154 509 202.50 524.50Q251 540 302 540Q439 540 513.50 458.50Q588 377 588 254L588 222M229 331L379 331Q376 369 356 389Q336 409 306 409Q270 409 249.50 381.50Q229 354 229 331M396 587L269 587L107 724L320 724L396 587Z"  horiz-adv-x="604" vert-adv-y="1000"  />

      
      <glyph glyph-name="unie9" unicode="&#xe9;" d="M588 222L227 222Q227 209 229.50 196.50Q232 184 239.50 165.50Q247 147 265.50 136Q284 125 312 125Q329 125 343 129.50Q357 134 366.50 140Q376 146 384 155Q392 164 396 170Q400 176 404 184L408 192L577 121Q542 64 474.50 21.50Q407-21 304-21Q244-21 194.50-4Q145 13 113 41Q81 69 58.50 106.50Q36 144 26.50 183Q17 222 17 262Q17 334 43 390Q69 446 111.50 477.50Q154 509 202.50 524.50Q251 540 302 540Q439 540 513.50 458.50Q588 377 588 254L588 222M229 331L379 331Q376 369 356 389Q336 409 306 409Q270 409 249.50 381.50Q229 354 229 331M504 724L343 587L215 587L292 724L504 724Z"  horiz-adv-x="604" vert-adv-y="1000"  />

      
      <glyph glyph-name="uniea" unicode="&#xea;" d="M588 222L227 222Q227 209 229.50 196.50Q232 184 239.50 165.50Q247 147 265.50 136Q284 125 312 125Q329 125 343 129.50Q357 134 366.50 140Q376 146 384 155Q392 164 396 170Q400 176 404 184L408 192L577 121Q542 64 474.50 21.50Q407-21 304-21Q244-21 194.50-4Q145 13 113 41Q81 69 58.50 106.50Q36 144 26.50 183Q17 222 17 262Q17 334 43 390Q69 446 111.50 477.50Q154 509 202.50 524.50Q251 540 302 540Q439 540 513.50 458.50Q588 377 588 254L588 222M229 331L379 331Q376 369 356 389Q336 409 306 409Q270 409 249.50 381.50Q229 354 229 331M488 586L345 586L304 652L264 586L121 586L227 724L383 724L488 586Z"  horiz-adv-x="604" vert-adv-y="1000"  />

      
      <glyph glyph-name="unieb" unicode="&#xeb;" d="M588 222L227 222Q227 209 229.50 196.50Q232 184 239.50 165.50Q247 147 265.50 136Q284 125 312 125Q329 125 343 129.50Q357 134 366.50 140Q376 146 384 155Q392 164 396 170Q400 176 404 184L408 192L577 121Q542 64 474.50 21.50Q407-21 304-21Q244-21 194.50-4Q145 13 113 41Q81 69 58.50 106.50Q36 144 26.50 183Q17 222 17 262Q17 334 43 390Q69 446 111.50 477.50Q154 509 202.50 524.50Q251 540 302 540Q439 540 513.50 458.50Q588 377 588 254L588 222M229 331L379 331Q376 369 356 389Q336 409 306 409Q270 409 249.50 381.50Q229 354 229 331M509 605L343 605L343 724L509 724L509 605M264 605L98 605L98 724L264 724L264 605Z"  horiz-adv-x="604" vert-adv-y="1000"  />

      
      <glyph glyph-name="uniec" unicode="&#xec;" d="M248 0L42 0L42 518L248 518L248 0M249 587L122 587L-40 724L173 724L249 587Z"  horiz-adv-x="292" vert-adv-y="1000"  />

      
      <glyph glyph-name="unied" unicode="&#xed;" d="M248 0L42 0L42 518L248 518L248 0M337 724L176 587L48 587L125 724L337 724Z"  horiz-adv-x="292" vert-adv-y="1000"  />

      
      <glyph glyph-name="uniee" unicode="&#xee;" d="M248 0L42 0L42 518L248 518L248 0M331 586L188 586L147 652L107 586L-36 586L70 724L226 724L331 586Z"  horiz-adv-x="292" vert-adv-y="1000"  />

      
      <glyph glyph-name="unief" unicode="&#xef;" d="M248 0L42 0L42 518L248 518L248 0M352 605L186 605L186 724L352 724L352 605M107 605L-59 605L-59 724L107 724L107 605Z"  horiz-adv-x="292" vert-adv-y="1000"  />

      
      <glyph glyph-name="unif0" unicode="&#xf0;" d="M176 615L318 648Q302 668 279 692L422 724Q427 718 460 681L551 701L569 646L500 631Q625 471 625 293Q625 229 606 174Q587 119 549.50 75Q512 31 448.50 5.50Q385-20 303-20Q183-20 101.50 54Q20 128 20 256Q20 279 24 303.50Q28 328 39.50 365.50Q51 403 80.50 439.50Q110 476 154 502Q219 541 291 541Q374 541 432 473Q392 561 359 599L191 561L176 615M416 259Q416 395 322 395Q290 395 268.50 379.50Q247 364 239 339.50Q231 315 228 298.50Q225 282 225 267Q225 125 321 125Q416 125 416 259Z"  horiz-adv-x="646" vert-adv-y="1000"  />

      
      <glyph glyph-name="unif1" unicode="&#xf1;" d="M598 0L392 0L392 283Q392 319 377 340Q362 361 321 361Q247 361 247 278L247 0L41 0L41 518L236 518L236 449Q285 531 406 531Q500 531 549 479.50Q598 428 598 331L598 0M232 586L145 586Q148 618 151.50 637.50Q155 657 164.50 681.50Q174 706 192.50 718.50Q211 731 239 731Q265 731 316.50 713.50Q368 696 380 696Q395 696 400 703.50Q405 711 407 727L496 727Q494 695 489.50 672.50Q485 650 476 627Q467 604 448.50 592.50Q430 581 403 581Q377 581 322.50 599Q268 617 255 617Q234 617 232 586Z"  horiz-adv-x="646" vert-adv-y="1000"  />

      
      <glyph glyph-name="unif2" unicode="&#xf2;" d="M624 258Q624 139 544 59.50Q464-20 315-20Q187-20 103.50 51Q20 122 20 255Q20 378 98.50 459Q177 540 322 540Q470 540 547 460Q624 380 624 258M416 263Q416 395 320 395Q271 395 248 358.50Q225 322 225 261Q225 124 321 124Q416 124 416 263M414 587L287 587L125 724L338 724L414 587Z"  horiz-adv-x="646" vert-adv-y="1000"  />

      
      <glyph glyph-name="unif3" unicode="&#xf3;" d="M624 258Q624 139 544 59.50Q464-20 315-20Q187-20 103.50 51Q20 122 20 255Q20 378 98.50 459Q177 540 322 540Q470 540 547 460Q624 380 624 258M416 263Q416 395 320 395Q271 395 248 358.50Q225 322 225 261Q225 124 321 124Q416 124 416 263M528 724L367 587L239 587L316 724L528 724Z"  horiz-adv-x="646" vert-adv-y="1000"  />

      
      <glyph glyph-name="unif4" unicode="&#xf4;" d="M624 258Q624 139 544 59.50Q464-20 315-20Q187-20 103.50 51Q20 122 20 255Q20 378 98.50 459Q177 540 322 540Q470 540 547 460Q624 380 624 258M416 263Q416 395 320 395Q271 395 248 358.50Q225 322 225 261Q225 124 321 124Q416 124 416 263M509 586L366 586L325 652L285 586L142 586L248 724L404 724L509 586Z"  horiz-adv-x="646" vert-adv-y="1000"  />

      
      <glyph glyph-name="unif5" unicode="&#xf5;" d="M624 258Q624 139 544 59.50Q464-20 315-20Q187-20 103.50 51Q20 122 20 255Q20 378 98.50 459Q177 540 322 540Q470 540 547 460Q624 380 624 258M416 263Q416 395 320 395Q271 395 248 358.50Q225 322 225 261Q225 124 321 124Q416 124 416 263M232 586L145 586Q148 618 151.50 637.50Q155 657 164.50 681.50Q174 706 192.50 718.50Q211 731 239 731Q265 731 316.50 713.50Q368 696 380 696Q395 696 400 703.50Q405 711 407 727L496 727Q494 695 489.50 672.50Q485 650 476 627Q467 604 448.50 592.50Q430 581 403 581Q377 581 322.50 599Q268 617 255 617Q234 617 232 586Z"  horiz-adv-x="646" vert-adv-y="1000"  />

      
      <glyph glyph-name="unif6" unicode="&#xf6;" d="M624 258Q624 139 544 59.50Q464-20 315-20Q187-20 103.50 51Q20 122 20 255Q20 378 98.50 459Q177 540 322 540Q470 540 547 460Q624 380 624 258M416 263Q416 395 320 395Q271 395 248 358.50Q225 322 225 261Q225 124 321 124Q416 124 416 263M528 605L362 605L362 724L528 724L528 605M283 605L117 605L117 724L283 724L283 605Z"  horiz-adv-x="646" vert-adv-y="1000"  />

      
      <glyph glyph-name="unif7" unicode="&#xf7;" d="M449 462L273 462L273 637L449 637L449 462M644 251L79 251L79 415L644 415L644 251M448 29L272 29L272 204L448 204L448 29Z"  horiz-adv-x="724" vert-adv-y="1000"  />

      
      <glyph glyph-name="unif8" unicode="&#xf8;" d="M580 535L625 483L572 437Q626 354 626 256Q626 203 608 154Q590 105 553.50 64Q517 23 455-1.50Q393-26 313-26Q182-26 110 40L48-14L4 39L64 91Q63 94 56 106.50Q49 119 46.50 124Q44 129 38 142Q32 155 29.50 164.50Q27 174 24 188.50Q21 203 19.50 219Q18 235 18 253Q18 389 100.50 467Q183 545 321 545Q450 545 525 487L580 535M223 228L391 372Q373 403 322 403Q269 403 245.50 366Q222 329 222 273Q222 243 223 228M418 307L247 157Q264 116 323 116Q357 116 379 134Q401 152 409 181Q417 210 419 225Q421 240 421 253Q421 277 418 307Z"  horiz-adv-x="646" vert-adv-y="1000"  />

      
      <glyph glyph-name="unif9" unicode="&#xf9;" d="M602 0L406 0L406 76Q391 39 347.50 13Q304-13 235-13Q195-13 162-3Q129 7 100 29.50Q71 52 55 94Q39 136 39 195L39 518L246 518L246 232Q246 152 321 152Q395 152 395 237L395 518L602 518L602 0M417 587L290 587L128 724L341 724L417 587Z"  horiz-adv-x="646" vert-adv-y="1000"  />

      
      <glyph glyph-name="unifa" unicode="&#xfa;" d="M602 0L406 0L406 76Q391 39 347.50 13Q304-13 235-13Q195-13 162-3Q129 7 100 29.50Q71 52 55 94Q39 136 39 195L39 518L246 518L246 232Q246 152 321 152Q395 152 395 237L395 518L602 518L602 0M525 724L364 587L236 587L313 724L525 724Z"  horiz-adv-x="646" vert-adv-y="1000"  />

      
      <glyph glyph-name="unifb" unicode="&#xfb;" d="M602 0L406 0L406 76Q391 39 347.50 13Q304-13 235-13Q195-13 162-3Q129 7 100 29.50Q71 52 55 94Q39 136 39 195L39 518L246 518L246 232Q246 152 321 152Q395 152 395 237L395 518L602 518L602 0M509 586L366 586L325 652L285 586L142 586L248 724L404 724L509 586Z"  horiz-adv-x="646" vert-adv-y="1000"  />

      
      <glyph glyph-name="unifc" unicode="&#xfc;" d="M602 0L406 0L406 76Q391 39 347.50 13Q304-13 235-13Q195-13 162-3Q129 7 100 29.50Q71 52 55 94Q39 136 39 195L39 518L246 518L246 232Q246 152 321 152Q395 152 395 237L395 518L602 518L602 0M526 605L360 605L360 724L526 724L526 605M281 605L115 605L115 724L281 724L281 605Z"  horiz-adv-x="646" vert-adv-y="1000"  />

      
      <glyph glyph-name="unifd" unicode="&#xfd;" d="M366 518L581 518L392-30Q363-114 324-150.50Q285-187 207-187Q106-187 78-180L78-33Q85-33 97-34Q109-35 118.50-35.50Q128-36 137-36Q180-36 180-11Q180-4 164 42L0 518L215 518L288 188L366 518M493 724L332 587L204 587L281 724L493 724Z"  horiz-adv-x="583" vert-adv-y="1000"  />

      
      <glyph glyph-name="unife" unicode="&#xfe;" d="M42-188L42 706L243 706L243 478Q284 532 379 532Q441 532 487 507.50Q533 483 558 442Q583 401 594.50 354Q606 307 606 255Q606 141 550 64Q494-13 380-13Q292-13 244 35L244-188L42-188M403 253Q403 382 323 382Q241 382 241 259Q241 132 323 132Q364 132 383.50 167Q403 202 403 253Z"  horiz-adv-x="625" vert-adv-y="1000"  />

      
      <glyph glyph-name="uniff" unicode="&#xff;" d="M366 518L581 518L392-30Q363-114 324-150.50Q285-187 207-187Q106-187 78-180L78-33Q85-33 97-34Q109-35 118.50-35.50Q128-36 137-36Q180-36 180-11Q180-4 164 42L0 518L215 518L288 188L366 518M498 605L332 605L332 724L498 724L498 605M253 605L87 605L87 724L253 724L253 605Z"  horiz-adv-x="583" vert-adv-y="1000"  />

      
      <glyph glyph-name="uni0100" unicode="&#x0100;" d="M787 0L547 0L516 98L270 98L239 0L-1 0L269 706L523 706L787 0M470 256L395 505L318 256L470 256M590 750L199 750L199 857L590 857L590 750Z"  horiz-adv-x="792" vert-adv-y="1000"  />

      
      <glyph glyph-name="uni0101" unicode="&#x0101;" d="M580 0L377 0L377 40Q348 21 331 12Q314 3 281-4.50Q248-12 205-12Q124-12 71.50 32.50Q19 77 19 155Q19 241 90 289Q131 317 233 331Q335 345 367 356Q365 387 351.50 401Q338 415 297 415Q263 415 248.50 403.50Q234 392 230 367Q63 363 36 362Q40 382 43.50 393.50Q47 405 56 425.50Q65 446 76.50 459Q88 472 109 488Q130 504 157 513Q184 522 225 528.50Q266 535 316 535Q367 535 406.50 528Q446 521 483.50 503Q521 485 541.50 448Q562 411 562 357L562 64Q562 37 565.50 26Q569 15 580 0M366 222L366 241Q353 235 309 224.50Q265 214 237.50 199.50Q210 185 210 161Q210 146 222.50 133.50Q235 121 261 121Q301 121 333.50 150Q366 179 366 222M502 598L111 598L111 705L502 705L502 598Z"  horiz-adv-x="604" vert-adv-y="1000"  />

      
      <glyph glyph-name="uni0102" unicode="&#x0102;" d="M787 0L547 0L516 98L270 98L239 0L-1 0L269 706L523 706L787 0M470 256L395 505L318 256L470 256M438 878L559 878Q554 857 548 843Q542 829 525 804Q508 779 474.50 765Q441 751 394 751Q355 751 324.50 762.50Q294 774 277.50 789.50Q261 805 250.50 824Q240 843 237 856Q234 869 234 878L348 878Q348 863 360 854Q372 845 393 845Q414 845 426 855Q438 865 438 878Z"  horiz-adv-x="792" vert-adv-y="1000"  />

      
      <glyph glyph-name="uni0103" unicode="&#x0103;" d="M580 0L377 0L377 40Q348 21 331 12Q314 3 281-4.50Q248-12 205-12Q124-12 71.50 32.50Q19 77 19 155Q19 241 90 289Q131 317 233 331Q335 345 367 356Q365 387 351.50 401Q338 415 297 415Q263 415 248.50 403.50Q234 392 230 367Q63 363 36 362Q40 382 43.50 393.50Q47 405 56 425.50Q65 446 76.50 459Q88 472 109 488Q130 504 157 513Q184 522 225 528.50Q266 535 316 535Q367 535 406.50 528Q446 521 483.50 503Q521 485 541.50 448Q562 411 562 357L562 64Q562 37 565.50 26Q569 15 580 0M366 222L366 241Q353 235 309 224.50Q265 214 237.50 199.50Q210 185 210 161Q210 146 222.50 133.50Q235 121 261 121Q301 121 333.50 150Q366 179 366 222M352 726L472 726Q446 574 310 574Q272 574 242.50 587Q213 600 197.50 618.50Q182 637 172 660Q162 683 159.50 698.50Q157 714 157 726L272 726L272 717Q272 672 312 672Q331 672 341.50 684Q352 696 352 715L352 726Z"  horiz-adv-x="604" vert-adv-y="1000"  />

      
      <glyph glyph-name="uni0104" unicode="&#x0104;" d="M239 0L-1 0L269 706L523 706L787 0L717 0Q692-2 666.50-27.50Q641-53 641-84Q641-116 660-127.50Q679-139 698-139Q709-139 738-128L742-175Q696-195 647-195Q595-195 568-169Q541-143 541-110Q541-87 550.50-68.50Q560-50 578.50-36.50Q597-23 609.50-16Q622-9 642 0L547 0L516 98L270 98L239 0M470 256L395 505L318 256L470 256Z"  horiz-adv-x="792" vert-adv-y="1000"  />

      
      <glyph glyph-name="uni0105" unicode="&#x0105;" d="M377 0L377 40Q348 21 331 12Q314 3 281-4.50Q248-12 205-12Q124-12 71.50 32.50Q19 77 19 155Q19 241 90 289Q131 317 233 331Q335 345 367 356Q365 387 351.50 401Q338 415 297 415Q263 415 248.50 403.50Q234 392 230 367Q63 363 36 362Q40 382 43.50 393.50Q47 405 56 425.50Q65 446 76.50 459Q88 472 109 488Q130 504 157 513Q184 522 225 528.50Q266 535 316 535Q367 535 406.50 528Q446 521 483.50 503Q521 485 541.50 448Q562 411 562 357L562 64Q562 37 565.50 26Q569 15 580 0L522 0Q496-3 471-28Q446-53 446-84Q446-116 465-127.50Q484-139 503-139Q514-139 543-128L547-175Q501-195 452-195Q400-195 373-169Q346-143 346-110Q346-87 355.50-68.50Q365-50 383-36.50Q401-23 414.50-15.50Q428-8 447 0L377 0M366 222L366 241Q353 235 309 224.50Q265 214 237.50 199.50Q210 185 210 161Q210 146 222.50 133.50Q235 121 261 121Q301 121 333.50 150Q366 179 366 222Z"  horiz-adv-x="604" vert-adv-y="1000"  />

      
      <glyph glyph-name="uni0106" unicode="&#x0106;" d="M546 274L737 182Q628-22 393-22Q318-22 255.50 0.50Q193 23 151.50 60Q110 97 81 146Q52 195 39.50 246Q27 297 27 349Q27 516 131 624Q235 732 394 732Q462 732 520.50 713.50Q579 695 620.50 664.50Q662 634 690 602Q718 570 736 535L549 442L540 462Q530 481 525.50 488.50Q521 496 507.50 512.50Q494 529 481.50 537Q469 545 448.50 552Q428 559 404 559Q329 559 291.50 503.50Q254 448 254 368Q254 255 296.50 206.50Q339 158 403 158Q436 158 461.50 168.50Q487 179 503 199Q519 219 528 235Q537 251 546 274M585 874L435 754L304 754L368 874L585 874Z"  horiz-adv-x="750" vert-adv-y="1000"  />

      
      <glyph glyph-name="uni0107" unicode="&#x0107;" d="M403 225L561 138Q549 111 530 86Q511 61 480 35.50Q449 10 401-5Q353-20 294-20Q169-20 93.50 57Q18 134 18 262Q18 391 95.50 466Q173 541 307 541Q480 541 560 406L404 318Q396 340 389 353.50Q382 367 362.50 381.50Q343 396 315 396Q280 396 258 370.50Q236 345 229 315.50Q222 286 222 255Q222 137 312 137Q350 137 374.50 167.50Q399 198 403 225M494 724L333 587L205 587L282 724L494 724Z"  horiz-adv-x="577" vert-adv-y="1000"  />

      
      <glyph glyph-name="uni0108" unicode="&#x0108;" d="M546 274L737 182Q628-22 393-22Q318-22 255.50 0.50Q193 23 151.50 60Q110 97 81 146Q52 195 39.50 246Q27 297 27 349Q27 516 131 624Q235 732 394 732Q462 732 520.50 713.50Q579 695 620.50 664.50Q662 634 690 602Q718 570 736 535L549 442L540 462Q530 481 525.50 488.50Q521 496 507.50 512.50Q494 529 481.50 537Q469 545 448.50 552Q428 559 404 559Q329 559 291.50 503.50Q254 448 254 368Q254 255 296.50 206.50Q339 158 403 158Q436 158 461.50 168.50Q487 179 503 199Q519 219 528 235Q537 251 546 274M586 751L442 751L408 804L377 751L236 751L329 874L490 874L586 751Z"  horiz-adv-x="750" vert-adv-y="1000"  />

      
      <glyph glyph-name="uni0109" unicode="&#x0109;" d="M403 225L561 138Q549 111 530 86Q511 61 480 35.50Q449 10 401-5Q353-20 294-20Q169-20 93.50 57Q18 134 18 262Q18 391 95.50 466Q173 541 307 541Q480 541 560 406L404 318Q396 340 389 353.50Q382 367 362.50 381.50Q343 396 315 396Q280 396 258 370.50Q236 345 229 315.50Q222 286 222 255Q222 137 312 137Q350 137 374.50 167.50Q399 198 403 225M501 586L358 586L317 652L277 586L134 586L240 724L396 724L501 586Z"  horiz-adv-x="577" vert-adv-y="1000"  />

      
      <glyph glyph-name="uni010A" unicode="&#x010A;" d="M546 274L737 182Q628-22 393-22Q318-22 255.50 0.50Q193 23 151.50 60Q110 97 81 146Q52 195 39.50 246Q27 297 27 349Q27 516 131 624Q235 732 394 732Q462 732 520.50 713.50Q579 695 620.50 664.50Q662 634 690 602Q718 570 736 535L549 442L540 462Q530 481 525.50 488.50Q521 496 507.50 512.50Q494 529 481.50 537Q469 545 448.50 552Q428 559 404 559Q329 559 291.50 503.50Q254 448 254 368Q254 255 296.50 206.50Q339 158 403 158Q436 158 461.50 168.50Q487 179 503 199Q519 219 528 235Q537 251 546 274M486 757L320 757L320 876L486 876L486 757Z"  horiz-adv-x="750" vert-adv-y="1000"  />

      
      <glyph glyph-name="uni010B" unicode="&#x010B;" d="M403 225L561 138Q549 111 530 86Q511 61 480 35.50Q449 10 401-5Q353-20 294-20Q169-20 93.50 57Q18 134 18 262Q18 391 95.50 466Q173 541 307 541Q480 541 560 406L404 318Q396 340 389 353.50Q382 367 362.50 381.50Q343 396 315 396Q280 396 258 370.50Q236 345 229 315.50Q222 286 222 255Q222 137 312 137Q350 137 374.50 167.50Q399 198 403 225M394 605L227 605L227 724L394 724L394 605Z"  horiz-adv-x="577" vert-adv-y="1000"  />

      
      <glyph glyph-name="uni010C" unicode="&#x010C;" d="M546 274L737 182Q628-22 393-22Q318-22 255.50 0.50Q193 23 151.50 60Q110 97 81 146Q52 195 39.50 246Q27 297 27 349Q27 516 131 624Q235 732 394 732Q462 732 520.50 713.50Q579 695 620.50 664.50Q662 634 690 602Q718 570 736 535L549 442L540 462Q530 481 525.50 488.50Q521 496 507.50 512.50Q494 529 481.50 537Q469 545 448.50 552Q428 559 404 559Q329 559 291.50 503.50Q254 448 254 368Q254 255 296.50 206.50Q339 158 403 158Q436 158 461.50 168.50Q487 179 503 199Q519 219 528 235Q537 251 546 274M570 874L477 751L316 751L220 874L364 874L398 822L429 874L570 874Z"  horiz-adv-x="750" vert-adv-y="1000"  />

      
      <glyph glyph-name="uni010D" unicode="&#x010D;" d="M403 225L561 138Q549 111 530 86Q511 61 480 35.50Q449 10 401-5Q353-20 294-20Q169-20 93.50 57Q18 134 18 262Q18 391 95.50 466Q173 541 307 541Q480 541 560 406L404 318Q396 340 389 353.50Q382 367 362.50 381.50Q343 396 315 396Q280 396 258 370.50Q236 345 229 315.50Q222 286 222 255Q222 137 312 137Q350 137 374.50 167.50Q399 198 403 225M482 724L376 586L220 586L115 724L258 724L299 658L339 724L482 724Z"  horiz-adv-x="577" vert-adv-y="1000"  />

      
      <glyph glyph-name="uni010E" unicode="&#x010E;" d="M44 0L44 706L351 706Q433 706 496 690.50Q559 675 612.50 638Q666 601 695 530Q724 459 724 357Q724 182 640 91Q556 0 397 0L44 0M268 162L356 162Q393 162 420.50 176.50Q448 191 462.50 211.50Q477 232 486 260Q495 288 497.50 309.50Q500 331 500 353Q500 377 497.50 399Q495 421 486 448Q477 475 463 494.50Q449 514 423 527.50Q397 541 362 541L268 541L268 162M496 874L403 751L242 751L146 874L290 874L324 822L355 874L496 874Z"  horiz-adv-x="750" vert-adv-y="1000"  />

      
      <glyph glyph-name="uni010F" unicode="&#x010F;" d="M582 0L382 0L382 37Q346-13 252-13Q145-13 82 63.50Q19 140 19 277Q19 392 82 462.50Q145 533 246 533Q322 533 377 482L377 706L582 706L582 0M382 261Q382 326 359.50 356Q337 386 301 386Q265 386 243.50 355.50Q222 325 222 260Q222 136 303 136Q382 136 382 261M609 612L609 706L741 706L741 635Q741 578 704 551Q672 528 609 522L609 566Q629 571 639.50 579.50Q650 588 651.50 594.50Q653 601 654 612L609 612Z"  horiz-adv-x="625" vert-adv-y="1000"  />

      
      <glyph glyph-name="uni0110" unicode="&#x0110;" d="M44 0L44 300L0 300L0 431L44 431L44 706L351 706Q433 706 496 690.50Q559 675 612.50 638Q666 601 695 530Q724 459 724 357Q724 182 640 91Q556 0 397 0L44 0M268 162L353 162Q398 162 429.50 182.50Q461 203 475 236Q489 269 494 296.50Q499 324 499 353Q499 383 494 411.50Q489 440 475.50 471.50Q462 503 432.50 522Q403 541 360 541L268 541L268 431L412 431L412 300L268 300L268 162Z"  horiz-adv-x="750" vert-adv-y="1000"  />

      
      <glyph glyph-name="uni0111" unicode="&#x0111;" d="M582 0L382 0L382 37Q346-13 252-13Q145-13 82 63.50Q19 140 19 277Q19 392 82 462.50Q145 533 246 533Q322 533 377 482L377 552L261 552L261 664L377 664L377 706L582 706L582 664L633 664L633 552L582 552L582 0M382 261Q382 326 359.50 356Q337 386 301 386Q265 386 243.50 355.50Q222 325 222 260Q222 136 303 136Q382 136 382 261Z"  horiz-adv-x="625" vert-adv-y="1000"  />

      
      <glyph glyph-name="uni0112" unicode="&#x0112;" d="M633 0L44 0L44 706L603 706L603 551L268 551L268 446L581 446L581 293L267 293L267 153L633 153L633 0M521 750L130 750L130 857L521 857L521 750Z"  horiz-adv-x="646" vert-adv-y="1000"  />

      
      <glyph glyph-name="uni0113" unicode="&#x0113;" d="M588 222L227 222Q227 209 229.50 196.50Q232 184 239.50 165.50Q247 147 265.50 136Q284 125 312 125Q329 125 343 129.50Q357 134 366.50 140Q376 146 384 155Q392 164 396 170Q400 176 404 184L408 192L577 121Q542 64 474.50 21.50Q407-21 304-21Q244-21 194.50-4Q145 13 113 41Q81 69 58.50 106.50Q36 144 26.50 183Q17 222 17 262Q17 334 43 390Q69 446 111.50 477.50Q154 509 202.50 524.50Q251 540 302 540Q439 540 513.50 458.50Q588 377 588 254L588 222M229 331L379 331Q376 369 356 389Q336 409 306 409Q270 409 249.50 381.50Q229 354 229 331M495 598L104 598L104 705L495 705L495 598Z"  horiz-adv-x="604" vert-adv-y="1000"  />

      
      <glyph glyph-name="uni0114" unicode="&#x0114;" d="M633 0L44 0L44 706L603 706L603 551L268 551L268 446L581 446L581 293L267 293L267 153L633 153L633 0M364 878L485 878Q480 857 474 843Q468 829 451 804Q434 779 400.50 765Q367 751 320 751Q281 751 250.50 762.50Q220 774 203.50 789.50Q187 805 176.50 824Q166 843 163 856Q160 869 160 878L274 878Q274 863 286 854Q298 845 319 845Q340 845 352 855Q364 865 364 878Z"  horiz-adv-x="646" vert-adv-y="1000"  />

      
      <glyph glyph-name="uni0115" unicode="&#x0115;" d="M588 222L227 222Q227 209 229.50 196.50Q232 184 239.50 165.50Q247 147 265.50 136Q284 125 312 125Q329 125 343 129.50Q357 134 366.50 140Q376 146 384 155Q392 164 396 170Q400 176 404 184L408 192L577 121Q542 64 474.50 21.50Q407-21 304-21Q244-21 194.50-4Q145 13 113 41Q81 69 58.50 106.50Q36 144 26.50 183Q17 222 17 262Q17 334 43 390Q69 446 111.50 477.50Q154 509 202.50 524.50Q251 540 302 540Q439 540 513.50 458.50Q588 377 588 254L588 222M229 331L379 331Q376 369 356 389Q336 409 306 409Q270 409 249.50 381.50Q229 354 229 331M339 726L459 726Q433 574 297 574Q259 574 229.50 587Q200 600 184.50 618.50Q169 637 159 660Q149 683 146.50 698.50Q144 714 144 726L259 726L259 717Q259 672 299 672Q318 672 328.50 684Q339 696 339 715L339 726Z"  horiz-adv-x="604" vert-adv-y="1000"  />

      
      <glyph glyph-name="uni0116" unicode="&#x0116;" d="M633 0L44 0L44 706L603 706L603 551L268 551L268 446L581 446L581 293L267 293L267 153L633 153L633 0M410 757L244 757L244 876L410 876L410 757Z"  horiz-adv-x="646" vert-adv-y="1000"  />

      
      <glyph glyph-name="uni0117" unicode="&#x0117;" d="M588 222L227 222Q227 209 229.50 196.50Q232 184 239.50 165.50Q247 147 265.50 136Q284 125 312 125Q329 125 343 129.50Q357 134 366.50 140Q376 146 384 155Q392 164 396 170Q400 176 404 184L408 192L577 121Q542 64 474.50 21.50Q407-21 304-21Q244-21 194.50-4Q145 13 113 41Q81 69 58.50 106.50Q36 144 26.50 183Q17 222 17 262Q17 334 43 390Q69 446 111.50 477.50Q154 509 202.50 524.50Q251 540 302 540Q439 540 513.50 458.50Q588 377 588 254L588 222M229 331L379 331Q376 369 356 389Q336 409 306 409Q270 409 249.50 381.50Q229 354 229 331M384 605L217 605L217 724L384 724L384 605Z"  horiz-adv-x="604" vert-adv-y="1000"  />

      
      <glyph glyph-name="uni0118" unicode="&#x0118;" d="M633 153L633 0L584 0Q555-6 531.50-29.50Q508-53 508-84Q508-105 520-118.50Q532-132 543.50-135.50Q555-139 565-139Q579-139 605-127L609-175Q563-195 514-195Q462-195 435-169Q408-143 408-110Q408-87 417.50-68.50Q427-50 445.50-36.50Q464-23 476.50-16Q489-9 509 0L44 0L44 706L603 706L603 551L268 551L268 446L581 446L581 293L267 293L267 153L633 153Z"  horiz-adv-x="646" vert-adv-y="1000"  />

      
      <glyph glyph-name="uni0119" unicode="&#x0119;" d="M588 222L227 222Q227 209 229.50 196.50Q232 184 239.50 165.50Q247 147 265.50 136Q284 125 312 125Q329 125 343 129.50Q357 134 366.50 140Q376 146 384 155Q392 164 396 170Q400 176 404 184L408 192L577 121Q558 88 523.50 57.50Q489 27 457 12Q400-14 379.50-34.50Q359-55 359-84Q359-105 371-118.50Q383-132 394.50-135.50Q406-139 416-139Q430-139 456-127L460-175Q414-195 365-195Q313-195 286-169Q259-143 259-110Q259-56 318-21L304-21Q244-21 194.50-4Q145 13 113 41Q81 69 58.50 106.50Q36 144 26.50 183Q17 222 17 262Q17 334 43 390Q69 446 111.50 477.50Q154 509 202.50 524.50Q251 540 302 540Q439 540 513.50 458.50Q588 377 588 254L588 222M229 331L379 331Q376 369 356 389Q336 409 306 409Q270 409 249.50 381.50Q229 354 229 331Z"  horiz-adv-x="604" vert-adv-y="1000"  />

      
      <glyph glyph-name="uni011A" unicode="&#x011A;" d="M633 0L44 0L44 706L603 706L603 551L268 551L268 446L581 446L581 293L267 293L267 153L633 153L633 0M501 874L408 751L247 751L151 874L295 874L329 822L360 874L501 874Z"  horiz-adv-x="646" vert-adv-y="1000"  />

      
      <glyph glyph-name="uni011B" unicode="&#x011B;" d="M588 222L227 222Q227 209 229.50 196.50Q232 184 239.50 165.50Q247 147 265.50 136Q284 125 312 125Q329 125 343 129.50Q357 134 366.50 140Q376 146 384 155Q392 164 396 170Q400 176 404 184L408 192L577 121Q542 64 474.50 21.50Q407-21 304-21Q244-21 194.50-4Q145 13 113 41Q81 69 58.50 106.50Q36 144 26.50 183Q17 222 17 262Q17 334 43 390Q69 446 111.50 477.50Q154 509 202.50 524.50Q251 540 302 540Q439 540 513.50 458.50Q588 377 588 254L588 222M229 331L379 331Q376 369 356 389Q336 409 306 409Q270 409 249.50 381.50Q229 354 229 331M486 724L380 586L224 586L119 724L262 724L303 658L343 724L486 724Z"  horiz-adv-x="604" vert-adv-y="1000"  />

      
      <glyph glyph-name="uni011C" unicode="&#x011C;" d="M757 517L558 461Q549 513 512 539.50Q475 566 421 566Q333 566 293.50 507.50Q254 449 254 364Q254 252 302.50 201Q351 150 427 150Q476 150 515.50 174.50Q555 199 560 249L429 249L429 391L753 391L753 0L586 0L586 49Q495-19 374-19Q316-19 257.50 2.50Q199 24 146 66.50Q93 109 60 182.50Q27 256 27 348Q27 454 69.50 540.50Q112 627 199 681Q286 735 403 735Q478 735 549 712.50Q620 690 679 639Q738 588 757 517M585 751L441 751L407 804L376 751L235 751L328 874L489 874L585 751Z"  horiz-adv-x="792" vert-adv-y="1000"  />

      
      <glyph glyph-name="uni011D" unicode="&#x011D;" d="M20-7L207-7L207-15Q207-74 288-74Q336-74 360.50-54.50Q385-35 385 12L385 78Q354 25 247 25Q186 25 139.50 47Q93 69 67.50 106Q42 143 30 185Q18 227 18 274Q18 387 78 459.50Q138 532 262 532Q359 532 404 469L404 518L582 518L582 19Q582-195 287-195Q228-195 186-189Q144-183 103-165.50Q62-148 41-111.50Q20-75 20-20L20-7M380 277Q380 389 304 389Q214 389 214 269Q214 206 236.50 183.50Q259 161 295 161Q380 161 380 277M481 586L338 586L297 652L257 586L114 586L220 724L376 724L481 586Z"  horiz-adv-x="625" vert-adv-y="1000"  />

      
      <glyph glyph-name="uni011E" unicode="&#x011E;" d="M757 517L558 461Q549 513 512 539.50Q475 566 421 566Q333 566 293.50 507.50Q254 449 254 364Q254 252 302.50 201Q351 150 427 150Q476 150 515.50 174.50Q555 199 560 249L429 249L429 391L753 391L753 0L586 0L586 49Q495-19 374-19Q316-19 257.50 2.50Q199 24 146 66.50Q93 109 60 182.50Q27 256 27 348Q27 454 69.50 540.50Q112 627 199 681Q286 735 403 735Q478 735 549 712.50Q620 690 679 639Q738 588 757 517M449 878L570 878Q565 857 559 843Q553 829 536 804Q519 779 485.50 765Q452 751 405 751Q366 751 335.50 762.50Q305 774 288.50 789.50Q272 805 261.50 824Q251 843 248 856Q245 869 245 878L359 878Q359 863 371 854Q383 845 404 845Q425 845 437 855Q449 865 449 878Z"  horiz-adv-x="792" vert-adv-y="1000"  />

      
      <glyph glyph-name="uni011F" unicode="&#x011F;" d="M20-7L207-7L207-15Q207-74 288-74Q336-74 360.50-54.50Q385-35 385 12L385 78Q354 25 247 25Q186 25 139.50 47Q93 69 67.50 106Q42 143 30 185Q18 227 18 274Q18 387 78 459.50Q138 532 262 532Q359 532 404 469L404 518L582 518L582 19Q582-195 287-195Q228-195 186-189Q144-183 103-165.50Q62-148 41-111.50Q20-75 20-20L20-7M380 277Q380 389 304 389Q214 389 214 269Q214 206 236.50 183.50Q259 161 295 161Q380 161 380 277M351 726L471 726Q445 574 309 574Q271 574 241.50 587Q212 600 196.50 618.50Q181 637 171 660Q161 683 158.50 698.50Q156 714 156 726L271 726L271 717Q271 672 311 672Q330 672 340.50 684Q351 696 351 715L351 726Z"  horiz-adv-x="625" vert-adv-y="1000"  />

      
      <glyph glyph-name="uni0120" unicode="&#x0120;" d="M757 517L558 461Q549 513 512 539.50Q475 566 421 566Q333 566 293.50 507.50Q254 449 254 364Q254 252 302.50 201Q351 150 427 150Q476 150 515.50 174.50Q555 199 560 249L429 249L429 391L753 391L753 0L586 0L586 49Q495-19 374-19Q316-19 257.50 2.50Q199 24 146 66.50Q93 109 60 182.50Q27 256 27 348Q27 454 69.50 540.50Q112 627 199 681Q286 735 403 735Q478 735 549 712.50Q620 690 679 639Q738 588 757 517M494 757L328 757L328 876L494 876L494 757Z"  horiz-adv-x="792" vert-adv-y="1000"  />

      
      <glyph glyph-name="uni0121" unicode="&#x0121;" d="M20-7L207-7L207-15Q207-74 288-74Q336-74 360.50-54.50Q385-35 385 12L385 78Q354 25 247 25Q186 25 139.50 47Q93 69 67.50 106Q42 143 30 185Q18 227 18 274Q18 387 78 459.50Q138 532 262 532Q359 532 404 469L404 518L582 518L582 19Q582-195 287-195Q228-195 186-189Q144-183 103-165.50Q62-148 41-111.50Q20-75 20-20L20-7M380 277Q380 389 304 389Q214 389 214 269Q214 206 236.50 183.50Q259 161 295 161Q380 161 380 277M383 605L216 605L216 724L383 724L383 605Z"  horiz-adv-x="625" vert-adv-y="1000"  />

      
      <glyph glyph-name="uni0122" unicode="&#x0122;" d="M757 517L558 461Q549 513 512 539.50Q475 566 421 566Q333 566 293.50 507.50Q254 449 254 364Q254 252 302.50 201Q351 150 427 150Q476 150 515.50 174.50Q555 199 560 249L429 249L429 391L753 391L753 0L586 0L586 49Q495-19 374-19Q316-19 257.50 2.50Q199 24 146 66.50Q93 109 60 182.50Q27 256 27 348Q27 454 69.50 540.50Q112 627 199 681Q286 735 403 735Q478 735 549 712.50Q620 690 679 639Q738 588 757 517M334-118L334-41L457-41L457-68Q457-130 431.50-157.50Q406-185 339-186L339-143Q362-137 363-118L334-118Z"  horiz-adv-x="792" vert-adv-y="1000"  />

      
      <glyph glyph-name="uni0123" unicode="&#x0123;" d="M366 664L366 587L243 587L243 614Q243 676 268.50 703.50Q294 731 361 732L361 689Q338 683 337 664L366 664M20-7L207-7L207-15Q207-74 288-74Q336-74 360.50-54.50Q385-35 385 12L385 78Q354 25 247 25Q186 25 139.50 47Q93 69 67.50 106Q42 143 30 185Q18 227 18 274Q18 387 78 459.50Q138 532 262 532Q359 532 404 469L404 518L582 518L582 19Q582-195 287-195Q228-195 186-189Q144-183 103-165.50Q62-148 41-111.50Q20-75 20-20L20-7M380 277Q380 389 304 389Q214 389 214 269Q214 206 236.50 183.50Q259 161 295 161Q380 161 380 277Z"  horiz-adv-x="625" vert-adv-y="1000"  />

      
      <glyph glyph-name="uni0124" unicode="&#x0124;" d="M705 0L480 0L480 272L267 272L267 0L44 0L44 706L267 706L267 449L480 449L480 706L705 706L705 0M550 751L406 751L372 804L341 751L200 751L293 874L454 874L550 751Z"  horiz-adv-x="750" vert-adv-y="1000"  />

      
      <glyph glyph-name="uni0125" unicode="&#x0125;" d="M603 0L397 0L397 296Q397 370 323 370Q247 370 247 292L247 0L41 0L41 706L246 706L246 466Q302 540 411 540Q446 540 477 531.50Q508 523 538 503.50Q568 484 585.50 444.50Q603 405 603 349L603 0M317 751L173 751L139 804L108 751L-33 751L60 874L221 874L317 751Z"  horiz-adv-x="646" vert-adv-y="1000"  />

      
      <glyph glyph-name="uni0126" unicode="&#x0126;" d="M2 497L2 626L44 626L44 706L267 706L267 626L480 626L480 706L705 706L705 626L748 626L748 497L705 497L705 0L480 0L480 272L267 272L267 0L44 0L44 497L2 497M267 449L480 449L480 497L267 497L267 449Z"  horiz-adv-x="750" vert-adv-y="1000"  />

      
      <glyph glyph-name="uni0127" unicode="&#x0127;" d="M361 552L246 552L246 466Q302 540 411 540Q446 540 477 531.50Q508 523 538 503.50Q568 484 585.50 444.50Q603 405 603 349L603 0L397 0L397 296Q397 370 323 370Q247 370 247 292L247 0L41 0L41 552L-7 552L-7 664L41 664L41 706L246 706L246 664L361 664L361 552Z"  horiz-adv-x="646" vert-adv-y="1000"  />

      
      <glyph glyph-name="uni0128" unicode="&#x0128;" d="M268 0L44 0L44 706L268 706L268 0M234 886L330 886Q327 864 324 848Q321 832 313 812Q305 792 294.50 779.50Q284 767 266 758.50Q248 750 224 750Q198 750 155 765.50Q112 781 99 781Q76 781 74 751L-17 751Q-9 815 13.50 850.50Q36 886 85 886Q116 886 157 872.50Q198 859 207 859Q230 859 234 886Z"  horiz-adv-x="313" vert-adv-y="1000"  />

      
      <glyph glyph-name="uni0129" unicode="&#x0129;" d="M248 0L42 0L42 518L248 518L248 0M57 586L-30 586Q-27 618-23.50 637.50Q-20 657-10.50 681.50Q-1 706 17.50 718.50Q36 731 64 731Q90 731 141.50 713.50Q193 696 205 696Q220 696 225 703.50Q230 711 232 727L321 727Q319 695 314.50 672.50Q310 650 301 627Q292 604 273.50 592.50Q255 581 228 581Q202 581 147.50 599Q93 617 80 617Q59 617 57 586Z"  horiz-adv-x="292" vert-adv-y="1000"  />

      
      <glyph glyph-name="uni012A" unicode="&#x012A;" d="M268 0L44 0L44 706L268 706L268 0M323 750L-10 750L-10 857L323 857L323 750Z"  horiz-adv-x="313" vert-adv-y="1000"  />

      
      <glyph glyph-name="uni012B" unicode="&#x012B;" d="M248 0L42 0L42 518L248 518L248 0M300 598L-8 598L-8 705L300 705L300 598Z"  horiz-adv-x="292" vert-adv-y="1000"  />

      
      <glyph glyph-name="uni012C" unicode="&#x012C;" d="M268 0L44 0L44 706L268 706L268 0M198 878L319 878Q314 857 308 843Q302 829 285 804Q268 779 234.50 765Q201 751 154 751Q115 751 84.50 762.50Q54 774 37.50 789.50Q21 805 10.50 824Q0 843-3 856Q-6 869-6 878L108 878Q108 863 120 854Q132 845 153 845Q174 845 186 855Q198 865 198 878Z"  horiz-adv-x="313" vert-adv-y="1000"  />

      
      <glyph glyph-name="uni012D" unicode="&#x012D;" d="M248 0L42 0L42 518L248 518L248 0M184 726L304 726Q278 574 142 574Q104 574 74.50 587Q45 600 29.50 618.50Q14 637 4 660Q-6 683-8.50 698.50Q-11 714-11 726L104 726L104 717Q104 672 144 672Q163 672 173.50 684Q184 696 184 715L184 726Z"  horiz-adv-x="292" vert-adv-y="1000"  />

      
      <glyph glyph-name="uni012E" unicode="&#x012E;" d="M268 0L228 0Q200-5 176-29Q152-53 152-84Q152-105 164-118.50Q176-132 187.50-135.50Q199-139 209-139Q225-139 249-127L253-175Q207-195 158-195Q106-195 79-169Q52-143 52-110Q52-87 61.50-68.50Q71-50 89.50-36.50Q108-23 120.50-16Q133-9 153 0L44 0L44 706L268 706L268 0Z"  horiz-adv-x="313" vert-adv-y="1000"  />

      
      <glyph glyph-name="uni012F" unicode="&#x012F;" d="M42 518L248 518L248 0L219 0Q193-3 168-28Q143-53 143-84Q143-105 155-118.50Q167-132 178.50-135.50Q190-139 200-139Q216-139 240-127L244-175Q198-195 149-195Q97-195 70-169Q43-143 43-110Q43-87 52.50-68.50Q62-50 80-36.50Q98-23 111-16Q124-9 144 0L42 0L42 518M248 569L42 569L42 706L248 706L248 569Z"  horiz-adv-x="292" vert-adv-y="1000"  />

      
      <glyph glyph-name="uni0130" unicode="&#x0130;" d="M268 0L44 0L44 706L268 706L268 0M239 757L73 757L73 876L239 876L239 757Z"  horiz-adv-x="313" vert-adv-y="1000"  />

      
      <glyph glyph-name="uni0131" unicode="&#x0131;" d="M248 0L42 0L42 518L248 518L248 0Z"  horiz-adv-x="292" vert-adv-y="1000"  />

      
      <glyph glyph-name="uni0132" unicode="&#x0132;" d="M268 0L44 0L44 706L268 706L268 0M461 706L684 706L684 196Q684 135 670 95.50Q656 56 625 35.50Q594 15 556.50 7.50Q519 0 462 0L313 0L313 174Q345 168 370 168Q422 168 441.50 186.50Q461 205 461 249L461 706Z"  horiz-adv-x="730" vert-adv-y="1000"  />

      
      <glyph glyph-name="uni0133" unicode="&#x0133;" d="M248 569L42 569L42 706L248 706L248 569M248 0L42 0L42 518L248 518L248 0M541 569L335 569L335 706L541 706L541 569M335 518L541 518L541-32Q541-130 485.50-162Q430-194 303-194L258-194L258-43L275-43Q335-43 335 13L335 518Z"  horiz-adv-x="584" vert-adv-y="1000"  />

      
      <glyph glyph-name="uni0134" unicode="&#x0134;" d="M148 706L371 706L371 196Q371 135 357 95.50Q343 56 312 35.50Q281 15 243.50 7.50Q206 0 149 0L0 0L0 174Q32 168 57 168Q109 168 128.50 186.50Q148 205 148 249L148 706M439 751L295 751L261 804L230 751L89 751L182 874L343 874L439 751Z"  horiz-adv-x="417" vert-adv-y="1000"  />

      
      <glyph glyph-name="uni0135" unicode="&#x0135;" d="M43 518L249 518L249-32Q249-130 193.50-162Q138-194 11-194L-34-194L-34-43L-17-43Q43-43 43 13L43 518M330 586L187 586L146 652L106 586L-37 586L69 724L225 724L330 586Z"  horiz-adv-x="292" vert-adv-y="1000"  />

      
      <glyph glyph-name="uni0136" unicode="&#x0136;" d="M779 0L528 0L372 282L267 167L267 0L44 0L44 706L267 706L267 439L489 706L761 706L516 438L779 0M333-118L333-41L456-41L456-68Q456-130 430.50-157.50Q405-185 338-186L338-143Q361-137 362-118L333-118Z"  horiz-adv-x="771" vert-adv-y="1000"  />

      
      <glyph glyph-name="uni0137" unicode="&#x0137;" d="M648 0L413 0L301 197L247 145L247 0L41 0L41 706L247 706L247 370L388 518L639 518L442 331L648 0M271-118L271-41L394-41L394-68Q394-130 368.50-157.50Q343-185 276-186L276-143Q299-137 300-118L271-118Z"  horiz-adv-x="646" vert-adv-y="1000"  />

      
      <glyph glyph-name="uni0138" unicode="&#x0138;" d="M648 0L413 0L301 197L247 145L247 0L41 0L41 518L247 518L247 370L388 518L639 518L442 331L648 0Z"  horiz-adv-x="646" vert-adv-y="1000"  />

      
      <glyph glyph-name="uni0139" unicode="&#x0139;" d="M540 0L44 0L44 706L267 706L267 178L540 178L540 0M356 874L206 754L75 754L139 874L356 874Z"  horiz-adv-x="542" vert-adv-y="1000"  />

      
      <glyph glyph-name="uni013A" unicode="&#x013A;" d="M248 0L41 0L41 706L248 706L248 0M340 874L190 754L59 754L123 874L340 874Z"  horiz-adv-x="292" vert-adv-y="1000"  />

      
      <glyph glyph-name="uni013B" unicode="&#x013B;" d="M540 0L44 0L44 706L267 706L267 178L540 178L540 0M233-118L233-41L356-41L356-68Q356-130 330.50-157.50Q305-185 238-186L238-143Q261-137 262-118L233-118Z"  horiz-adv-x="542" vert-adv-y="1000"  />

      
      <glyph glyph-name="uni013C" unicode="&#x013C;" d="M248 0L41 0L41 706L248 706L248 0M84-118L84-41L207-41L207-68Q207-130 181.50-157.50Q156-185 89-186L89-143Q112-137 113-118L84-118Z"  horiz-adv-x="292" vert-adv-y="1000"  />

      
      <glyph glyph-name="uni013D" unicode="&#x013D;" d="M540 0L44 0L44 706L267 706L267 178L540 178L540 0M298 612L298 706L430 706L430 635Q430 578 393 551Q361 528 298 522L298 566Q318 571 328.50 579.50Q339 588 340.50 594.50Q342 601 343 612L298 612Z"  horiz-adv-x="542" vert-adv-y="1000"  />

      
      <glyph glyph-name="uni013E" unicode="&#x013E;" d="M248 0L41 0L41 706L248 706L248 0M274 612L274 706L406 706L406 635Q406 578 369 551Q337 528 274 522L274 566Q294 571 304.50 579.50Q315 588 316.50 594.50Q318 601 319 612L274 612Z"  horiz-adv-x="292" vert-adv-y="1000"  />

      
      <glyph glyph-name="uni013F" unicode="&#x013F;" d="M540 0L44 0L44 706L267 706L267 178L540 178L540 0M510 319L331 319L331 496L510 496L510 319Z"  horiz-adv-x="542" vert-adv-y="1000"  />

      
      <glyph glyph-name="uni0140" unicode="&#x0140;" d="M248 0L41 0L41 706L248 706L248 0M460 283L286 283L286 452L460 452L460 283Z"  horiz-adv-x="455" vert-adv-y="1000"  />

      
      </font>
</defs>
</svg>
