<svg xmlns="http://www.w3.org/2000/svg" viewBox="0 0 500 500"><defs><style>.cls-1{fill:#d82400;}.cls-2{fill:#fff;}</style></defs><title>Asset 2logo-white</title><g id="Layer_2" data-name="Layer 2"><g id="Шар_1" data-name="Шар 1"><rect class="cls-1" x="0.5" y="0.5" width="499" height="499"/><path class="cls-1" d="M499,1V499H1V1H499m1-1H0V500H500V0Z"/><path class="cls-2" d="M181.18,256.83H142.3L122,221H103.27v35.82H67.88V158.44h72.46q12.27,0,20.35,2.5t13.52,11a33,33,0,0,1,5,17.7,43.11,43.11,0,0,1-.28,4.88,31.08,31.08,0,0,1-1.61,6.2A22.72,22.72,0,0,1,167,213.48a31.1,31.1,0,0,1-10.38,4.05Zm-77.91-76.1v18.12h26.48q9.48,0,12.41-3.48a8.51,8.51,0,0,0,2-5.58,8.23,8.23,0,0,0-1.54-5q-2.79-4-10-4Z"/><path class="cls-2" d="M318,158.44h55.88A107.55,107.55,0,0,1,394,160.11a49.38,49.38,0,0,1,14.49,4.81,46.89,46.89,0,0,1,9.27,6.41,47.81,47.81,0,0,1,6.62,7.59Q433,191.33,433,208.74q0,29.41-21.46,41.12a55.43,55.43,0,0,1-13.87,5.36,77.5,77.5,0,0,1-17.21,1.61H318Zm34.42,76.09H371a33.27,33.27,0,0,0,13.3-2.44,22.74,22.74,0,0,0,8.3-5.51,22,22,0,0,0,4.11-7.45,33.84,33.84,0,0,0,1.67-6.55c.14-1.44.21-3,.21-4.67q0-13.93-9.06-20.77-6.82-5.29-19.65-5.29H352.45Z"/><path class="cls-2" d="M101,339.84H67.59v-54h7.2v47.59H101Z"/><path class="cls-2" d="M150.76,339.84h-7.57l-5.89-16.53H116.71l-6,16.53H103l20.58-54h7.5Zm-15.61-22.57-7.88-22.57L119,317.27Z"/><path class="cls-2" d="M225.29,285.82l-16.53,54h-7l-14.23-44.76-13.77,44.76h-7.19l-16.61-54h7.58l12.77,44.76L184,285.82h7l14.23,44.76,12.63-44.76Z"/><path class="cls-2" d="M273.41,285.82,254,315.13v24.71h-7.27V315.13l-19-29.31h8.5l14.23,22.88,14.38-22.88Z"/><path class="cls-2" d="M318.63,339.84h-38.1v-54h37.18v6.35h-30.3v16.68h26.33v6.28H287.41v18.44h31.22Z"/><path class="cls-2" d="M374.18,339.84h-8.57l-14.77-22.95H336.92v22.95h-7v-54h24.33q8.12,0,12.81,3.94t4.71,11.82a15.9,15.9,0,0,1-3,9.64q-2.94,4.06-9.75,5.21Zm-37.26-29h15.91q11.79,0,11.78-9.26a9.27,9.27,0,0,0-2.83-7.19c-1.88-1.73-4.54-2.6-7.95-2.6H336.92Z"/><path class="cls-2" d="M381,322.55l7.73-1a13.61,13.61,0,0,0,.07,1.46,22.52,22.52,0,0,0,.42,2.22,13.44,13.44,0,0,0,.92,2.75,14.14,14.14,0,0,0,1.76,2.72,11.16,11.16,0,0,0,2.75,2.48,15,15,0,0,0,4.06,1.69,20.77,20.77,0,0,0,5.55.69,19,19,0,0,0,4.05-.46,21.08,21.08,0,0,0,4.33-1.53,8.82,8.82,0,0,0,3.67-3.33,10.14,10.14,0,0,0,1.41-5.47c0-2.76-.86-4.77-2.6-6a19.46,19.46,0,0,0-7.65-2.91l-4.9-1q-9.63-1.9-14.3-5.39t-4.67-10a13.26,13.26,0,0,1,5.13-10.56q5.36-4.44,14-4.44,9.63,0,14.92,4.06a15.12,15.12,0,0,1,4.7,5.32,26.73,26.73,0,0,1,2.18,7.23l-7.27.46a10.61,10.61,0,0,0-1.41-5.36,10.87,10.87,0,0,0-2.3-3,11.48,11.48,0,0,0-4.09-2.22,18.93,18.93,0,0,0-6.12-.92,21.38,21.38,0,0,0-5.51.69,10.87,10.87,0,0,0-4.71,2.68,6.72,6.72,0,0,0-2.1,5.12,6.05,6.05,0,0,0,2.72,5.4,26.24,26.24,0,0,0,8.07,3.1l9.87,2.37c1,.25,1.85.47,2.49.65a24.07,24.07,0,0,1,3.36,1.45,14.92,14.92,0,0,1,3.9,2.64,14.62,14.62,0,0,1,4,10.18,14.89,14.89,0,0,1-4.51,11.09q-6,5.82-17.06,5.82-9,0-14.77-3.75Q382,332.88,381,322.55Z"/><rect class="cls-2" x="195.52" y="158" width="104.05" height="23.26"/><rect class="cls-2" x="195.52" y="195.95" width="104.05" height="23.26"/><rect class="cls-2" x="195.52" y="233.89" width="104.05" height="23.26"/></g></g></svg>